<svg width="19" height="24" viewBox="0 0 19 24" fill="none" xmlns="http://www.w3.org/2000/svg">
<path d="M13.7295 8.2081C13.2565 8.1711 12.7485 8.2841 11.9705 8.5811C12.0365 8.5561 11.2285 8.8711 11.0025 8.9511C10.5005 9.1261 10.0875 9.2221 9.62455 9.2221C9.16655 9.2221 8.74455 9.1301 8.25855 8.9671C8.10355 8.9141 7.94755 8.8571 7.75355 8.7811C7.67155 8.7491 7.37155 8.6291 7.30555 8.6041C6.65755 8.3501 6.29255 8.2541 5.98955 8.2621C4.83755 8.2771 3.74655 8.9421 3.11355 10.0441C1.82155 12.2881 2.53655 16.3431 4.42555 19.0751C5.43155 20.5191 5.98155 21.0351 6.20355 21.0281C6.42555 21.0181 6.58855 20.9711 6.98655 20.8031L7.15355 20.7321C8.15855 20.3031 8.86355 20.1141 9.92455 20.1141C10.9455 20.1141 11.6275 20.3001 12.5925 20.7161L12.7605 20.7881C13.1585 20.9581 13.3025 20.9961 13.5525 20.9901C13.9105 20.9851 14.3515 20.5731 15.3305 19.1361C15.5985 18.7451 15.8356 18.3331 16.0406 17.9161C15.9058 17.8051 15.7751 17.6894 15.6486 17.5691C14.3596 16.3411 13.5625 14.6851 13.5405 12.6391C13.519 11.1253 14.0166 9.64971 14.9506 8.4581C14.5586 8.31339 14.1469 8.22909 13.7295 8.2081ZM13.8845 6.2141C14.5925 6.2621 16.6206 6.4781 17.9405 8.4101C17.8326 8.4701 15.5166 9.8141 15.5406 12.6221C15.5766 15.9821 18.4806 17.0981 18.5166 17.1101C18.4925 17.1941 18.0485 18.7061 16.9805 20.2661C16.0565 21.6221 15.0965 22.9661 13.5845 22.9901C12.0965 23.0261 11.6165 22.1141 9.92455 22.1141C8.22055 22.1141 7.69255 22.9661 6.28855 23.0261C4.82455 23.0741 3.72055 21.5621 2.78455 20.2181C0.87655 17.4581 -0.57545 12.4421 1.38055 9.0461C2.35255 7.3541 4.08055 6.2861 5.96455 6.2621C7.39255 6.2261 8.74855 7.2221 9.62455 7.2221C10.4885 7.2221 12.0365 6.0701 13.8845 6.2141ZM12.7445 4.3901C11.9646 5.3261 10.6925 6.0581 9.45655 5.9621C9.28855 4.6901 9.91255 3.3581 10.6325 2.5301C11.4365 1.5941 12.7805 0.898098 13.8965 0.850098C14.0405 2.1461 13.5245 3.4541 12.7445 4.3901Z" fill=""/>
</svg>
