<svg width="40" height="40" viewBox="0 0 40 40" fill="none" xmlns="http://www.w3.org/2000/svg">
<circle cx="20" cy="20" r="20" fill="#FEF3E8"/>
<path d="M22.0331 16.0414C21.8748 16.0414 21.7165 15.9831 21.5915 15.8581L19.8998 14.1664L18.2081 15.8581C17.9665 16.0997 17.5665 16.0997 17.3248 15.8581C17.0831 15.6164 17.0831 15.2164 17.3248 14.9747L19.4581 12.8414C19.6998 12.5997 20.0998 12.5997 20.3415 12.8414L22.4748 14.9747C22.7165 15.2164 22.7165 15.6164 22.4748 15.8581C22.3498 15.9831 22.1915 16.0414 22.0331 16.0414Z" fill="url(#paint0_linear_3539_97683)"/>
<path d="M19.8999 22.4408C19.5582 22.4408 19.2749 22.1575 19.2749 21.8158V13.3408C19.2749 12.9992 19.5582 12.7158 19.8999 12.7158C20.2416 12.7158 20.5249 12.9992 20.5249 13.3408V21.8158C20.5249 22.1658 20.2416 22.4408 19.8999 22.4408Z" fill="url(#paint1_linear_3539_97683)"/>
<path d="M20.0004 27.2917C15.7087 27.2917 12.7087 24.2917 12.7087 20C12.7087 19.6583 12.9921 19.375 13.3337 19.375C13.6754 19.375 13.9587 19.6583 13.9587 20C13.9587 23.5583 16.4421 26.0417 20.0004 26.0417C23.5587 26.0417 26.0421 23.5583 26.0421 20C26.0421 19.6583 26.3254 19.375 26.6671 19.375C27.0087 19.375 27.2921 19.6583 27.2921 20C27.2921 24.2917 24.2921 27.2917 20.0004 27.2917Z" fill="url(#paint2_linear_3539_97683)"/>
<defs>
<linearGradient id="paint0_linear_3539_97683" x1="17.1436" y1="12.6602" x2="20.1576" y2="17.5739" gradientUnits="userSpaceOnUse">
<stop stop-color="#F18B1B"/>
<stop offset="1" stop-color="#E52053"/>
</linearGradient>
<linearGradient id="paint1_linear_3539_97683" x1="19.2749" y1="12.7158" x2="21.7343" y2="13.0319" gradientUnits="userSpaceOnUse">
<stop stop-color="#F18B1B"/>
<stop offset="1" stop-color="#E52053"/>
</linearGradient>
<linearGradient id="paint2_linear_3539_97683" x1="12.7087" y1="19.375" x2="19.3476" y2="31.6044" gradientUnits="userSpaceOnUse">
<stop stop-color="#F18B1B"/>
<stop offset="1" stop-color="#E52053"/>
</linearGradient>
</defs>
</svg>
