<svg width="13" height="13" viewBox="0 0 13 13" fill="none" xmlns="http://www.w3.org/2000/svg">
<path d="M0.875 0.875H12.125C12.2908 0.875 12.4497 0.940848 12.5669 1.05806C12.6842 1.17527 12.75 1.33424 12.75 1.5V11.5C12.75 11.6658 12.6842 11.8247 12.5669 11.9419C12.4497 12.0592 12.2908 12.125 12.125 12.125H8.375C8.37512 11.7065 8.34315 11.2886 8.27938 10.875H11.5V2.125H1.5V4.09562C1.08639 4.03185 0.668498 3.99988 0.25 4V1.5C0.25 1.33424 0.315848 1.17527 0.433058 1.05806C0.550268 0.940848 0.70924 0.875 0.875 0.875ZM7.125 12.125H5.875C5.875 10.6332 5.28237 9.20242 4.22748 8.14752C3.17258 7.09263 1.74184 6.5 0.25 6.5V5.25C4.04688 5.25 7.125 8.32812 7.125 12.125ZM4.625 12.125H3.375C3.375 11.7146 3.29417 11.3083 3.13712 10.9291C2.98008 10.55 2.74989 10.2055 2.45971 9.91529C2.16953 9.62511 1.82503 9.39492 1.44589 9.23788C1.06674 9.08083 0.660381 9 0.25 9V7.75C1.41032 7.75 2.52312 8.21094 3.34359 9.03141C4.16406 9.85188 4.625 10.9647 4.625 12.125ZM2.125 12.125H0.25V10.25C0.747281 10.25 1.22419 10.4475 1.57583 10.7992C1.92746 11.1508 2.125 11.6277 2.125 12.125Z" fill="#1E1D24"/>
</svg>



