

<svg class="fill-current" width="18" height="16" viewBox="0 0 18 16" fill="none" xmlns="http://www.w3.org/2000/svg">
<path d="M1.5013 0.5H16.5013C16.7223 0.5 16.9343 0.587797 17.0906 0.744078C17.2468 0.900358 17.3346 1.11232 17.3346 1.33333V14.6667C17.3346 14.8877 17.2468 15.0996 17.0906 15.2559C16.9343 15.4122 16.7223 15.5 16.5013 15.5H11.5013C11.5015 14.942 11.4588 14.3848 11.3738 13.8333H15.668V2.16667H2.33464V4.79417C1.78315 4.70913 1.22597 4.66651 0.667969 4.66667V1.33333C0.667969 1.11232 0.755766 0.900358 0.912046 0.744078C1.06833 0.587797 1.28029 0.5 1.5013 0.5ZM9.83464 15.5H8.16797C8.16797 13.5109 7.37779 11.6032 5.97127 10.1967C4.56475 8.79018 2.65709 8 0.667969 8V6.33333C5.73047 6.33333 9.83464 10.4375 9.83464 15.5ZM6.5013 15.5H4.83464C4.83464 14.9528 4.72686 14.411 4.51747 13.9055C4.30807 13.4 4.00116 12.9406 3.61425 12.5537C3.22734 12.1668 2.76801 11.8599 2.26248 11.6505C1.75696 11.4411 1.21514 11.3333 0.667969 11.3333V9.66667C2.21507 9.66667 3.6988 10.2812 4.79276 11.3752C5.88672 12.4692 6.5013 13.9529 6.5013 15.5ZM3.16797 15.5H0.667969V13C1.33101 13 1.96689 13.2634 2.43574 13.7322C2.90458 14.2011 3.16797 14.837 3.16797 15.5Z" fill=""/>
</svg>


