<svg width="17" height="16" viewBox="0 0 17 16" fill="none" xmlns="http://www.w3.org/2000/svg">
<g clip-path="url(#clip0_2913_45)">
<path d="M8.5 16C12.9183 16 16.5 12.4183 16.5 8C16.5 3.58172 12.9183 0 8.5 0C4.08172 0 0.5 3.58172 0.5 8C0.5 12.4183 4.08172 16 8.5 16Z" fill="#F0F0F0"/>
<path d="M0.499695 8.00018C0.499695 11.4399 2.67069 14.3722 5.7171 15.5026V0.497803C2.67069 1.62812 0.499695 4.56049 0.499695 8.00018Z" fill="#6DA544"/>
<path d="M16.4999 8.00042C16.4999 4.56073 14.3289 1.62836 11.2825 0.498047V15.5029C14.3289 14.3725 16.4999 11.4402 16.4999 8.00042Z" fill="#6DA544"/>
</g>
<defs>
<clipPath id="clip0_2913_45">
<rect width="16" height="16" fill="white" transform="translate(0.5)"/>
</clipPath>
</defs>
</svg>
