<svg width="16" height="17" viewBox="0 0 16 17" fill="none" xmlns="http://www.w3.org/2000/svg">
<path d="M11.8602 15.6667H4.14016C2.3135 15.6667 0.833496 14.18 0.833496 12.3534V7.41336C0.833496 6.50669 1.3935 5.36669 2.1135 4.80669L5.70683 2.00669C6.78683 1.16669 8.5135 1.12669 9.6335 1.91336L13.7535 4.80002C14.5468 5.35336 15.1668 6.54002 15.1668 7.50669V12.36C15.1668 14.18 13.6868 15.6667 11.8602 15.6667ZM6.32016 2.79336L2.72683 5.59336C2.2535 5.96669 1.8335 6.81336 1.8335 7.41336V12.3534C1.8335 13.6267 2.86683 14.6667 4.14016 14.6667H11.8602C13.1335 14.6667 14.1668 13.6334 14.1668 12.36V7.50669C14.1668 6.86669 13.7068 5.98002 13.1802 5.62002L9.06016 2.73336C8.30016 2.20002 7.04683 2.22669 6.32016 2.79336Z" fill="white"/>
<path d="M8 13C7.72667 13 7.5 12.7733 7.5 12.5V10.5C7.5 10.2267 7.72667 10 8 10C8.27333 10 8.5 10.2267 8.5 10.5V12.5C8.5 12.7733 8.27333 13 8 13Z" fill="white"/>
</svg>
