<svg width="118" height="142" viewBox="0 0 118 142" fill="none" xmlns="http://www.w3.org/2000/svg">
<path d="M58.735 132.735C91.1735 132.735 117.47 106.438 117.47 73.9997C117.47 41.5612 91.1735 15.2646 58.735 15.2646C26.2966 15.2646 0 41.5612 0 73.9997C0 106.438 26.2966 132.735 58.735 132.735Z" fill="url(#paint0_linear_6556_81057)"/>
<g filter="url(#filter0_d_6556_81057)">
<path d="M92.4107 48.9399H25.0612C22.8986 48.9399 21.1455 50.693 21.1455 52.8556V135.085C21.1455 137.247 22.8986 139 25.0612 139H92.4107C94.5732 139 96.3263 137.247 96.3263 135.085V52.8556C96.3263 50.693 94.5732 48.9399 92.4107 48.9399Z" fill="white"/>
</g>
<path d="M50.9052 60.6865H30.5437C29.2462 60.6865 28.1943 61.7384 28.1943 63.0359C28.1943 64.3335 29.2462 65.3853 30.5437 65.3853H50.9052C52.2028 65.3853 53.2546 64.3335 53.2546 63.0359C53.2546 61.7384 52.2028 60.6865 50.9052 60.6865Z" fill="#1E1D24"/>
<path d="M65.0016 70.8672H30.5437C29.2462 70.8672 28.1943 71.9191 28.1943 73.2166C28.1943 74.5141 29.2462 75.566 30.5437 75.566H65.0016C66.2992 75.566 67.351 74.5141 67.351 73.2166C67.351 71.9191 66.2992 70.8672 65.0016 70.8672Z" fill="#F2F4F7"/>
<path d="M50.9052 81.8311H30.5437C29.2462 81.8311 28.1943 82.8829 28.1943 84.1805C28.1943 85.478 29.2462 86.5299 30.5437 86.5299H50.9052C52.2028 86.5299 53.2546 85.478 53.2546 84.1805C53.2546 82.8829 52.2028 81.8311 50.9052 81.8311Z" fill="#1E1D24"/>
<path d="M65.0016 92.0117H30.5437C29.2462 92.0117 28.1943 93.0636 28.1943 94.3611C28.1943 95.6587 29.2462 96.7105 30.5437 96.7105H65.0016C66.2992 96.7105 67.351 95.6587 67.351 94.3611C67.351 93.0636 66.2992 92.0117 65.0016 92.0117Z" fill="#F2F4F7"/>
<path d="M50.9052 102.975H30.5437C29.2462 102.975 28.1943 104.027 28.1943 105.324C28.1943 106.622 29.2462 107.674 30.5437 107.674H50.9052C52.2028 107.674 53.2546 106.622 53.2546 105.324C53.2546 104.027 52.2028 102.975 50.9052 102.975Z" fill="#1E1D24"/>
<path d="M65.0016 113.156H30.5437C29.2462 113.156 28.1943 114.208 28.1943 115.505C28.1943 116.803 29.2462 117.855 30.5437 117.855H65.0016C66.2992 117.855 67.351 116.803 67.351 115.505C67.351 114.208 66.2992 113.156 65.0016 113.156Z" fill="#F2F4F7"/>
<g filter="url(#filter1_d_6556_81057)">
<path d="M92.2652 9H24.9157C22.7531 9 21 10.7531 21 12.9157V36.4097C21 38.5722 22.7531 40.3253 24.9157 40.3253H92.2652C94.4277 40.3253 96.1808 38.5722 96.1808 36.4097V12.9157C96.1808 10.7531 94.4277 9 92.2652 9Z" fill="#1E1D24"/>
</g>
<path d="M50.7587 17.6143H30.3973C29.0997 17.6143 28.0479 18.6661 28.0479 19.9637C28.0479 21.2612 29.0997 22.3131 30.3973 22.3131H50.7587C52.0563 22.3131 53.1081 21.2612 53.1081 19.9637C53.1081 18.6661 52.0563 17.6143 50.7587 17.6143Z" fill="#1E1D24"/>
<path d="M64.8551 27.7949H30.3973C29.0997 27.7949 28.0479 28.8468 28.0479 30.1443C28.0479 31.4419 29.0997 32.4937 30.3973 32.4937H64.8551C66.1527 32.4937 67.2045 31.4419 67.2045 30.1443C67.2045 28.8468 66.1527 27.7949 64.8551 27.7949Z" fill="white"/>
<defs>
<filter id="filter0_d_6556_81057" x="15.1455" y="39.9399" width="87.1807" height="102.061" filterUnits="userSpaceOnUse" color-interpolation-filters="sRGB">
<feFlood flood-opacity="0" result="BackgroundImageFix"/>
<feColorMatrix in="SourceAlpha" type="matrix" values="0 0 0 0 0 0 0 0 0 0 0 0 0 0 0 0 0 0 127 0" result="hardAlpha"/>
<feOffset dy="-3"/>
<feGaussianBlur stdDeviation="3"/>
<feColorMatrix type="matrix" values="0 0 0 0 0.788235 0 0 0 0 0.803922 0 0 0 0 0.85098 0 0 0 0.349 0"/>
<feBlend mode="normal" in2="BackgroundImageFix" result="effect1_dropShadow_6556_81057"/>
<feBlend mode="normal" in="SourceGraphic" in2="effect1_dropShadow_6556_81057" result="shape"/>
</filter>
<filter id="filter1_d_6556_81057" x="15" y="0" width="87.1807" height="43.3252" filterUnits="userSpaceOnUse" color-interpolation-filters="sRGB">
<feFlood flood-opacity="0" result="BackgroundImageFix"/>
<feColorMatrix in="SourceAlpha" type="matrix" values="0 0 0 0 0 0 0 0 0 0 0 0 0 0 0 0 0 0 127 0" result="hardAlpha"/>
<feOffset dy="-3"/>
<feGaussianBlur stdDeviation="3"/>
<feColorMatrix type="matrix" values="0 0 0 0 0.788235 0 0 0 0 0.803922 0 0 0 0 0.85098 0 0 0 0.349 0"/>
<feBlend mode="normal" in2="BackgroundImageFix" result="effect1_dropShadow_6556_81057"/>
<feBlend mode="normal" in="SourceGraphic" in2="effect1_dropShadow_6556_81057" result="shape"/>
</filter>
<linearGradient id="paint0_linear_6556_81057" x1="58.735" y1="15.2646" x2="58.735" y2="132.735" gradientUnits="userSpaceOnUse">
<stop stop-color="#DCD8EC" stop-opacity="0.12"/>
<stop offset="1" stop-color="#DFE0EB" stop-opacity="0.4"/>
</linearGradient>
</defs>
</svg>
