<svg width="118" height="142" viewBox="0 0 118 142" fill="none" xmlns="http://www.w3.org/2000/svg">
<path d="M58.735 132.735C91.1735 132.735 117.47 106.438 117.47 73.9998C117.47 41.5613 91.1735 15.2647 58.735 15.2647C26.2966 15.2647 0 41.5613 0 73.9998C0 106.438 26.2966 132.735 58.735 132.735Z" fill="url(#paint0_linear_7102_83339)"/>
<g filter="url(#filter0_d_7102_83339)">
<path d="M92.4097 48.9398H25.0602C22.8976 48.9398 21.1445 50.6929 21.1445 52.8555V135.084C21.1445 137.247 22.8976 139 25.0602 139H92.4097C94.5723 139 96.3254 137.247 96.3254 135.084V52.8555C96.3254 50.6929 94.5723 48.9398 92.4097 48.9398Z" fill="white"/>
</g>
<path d="M50.9062 60.6866H30.5447C29.2472 60.6866 28.1953 61.7385 28.1953 63.036C28.1953 64.3335 29.2472 65.3854 30.5447 65.3854H50.9062C52.2037 65.3854 53.2556 64.3335 53.2556 63.036C53.2556 61.7385 52.2037 60.6866 50.9062 60.6866Z" fill="#F3D5B3"/>
<path d="M65.0026 70.8674H30.5447C29.2472 70.8674 28.1953 71.9193 28.1953 73.2168C28.1953 74.5144 29.2472 75.5662 30.5447 75.5662H65.0026C66.3001 75.5662 67.352 74.5144 67.352 73.2168C67.352 71.9193 66.3001 70.8674 65.0026 70.8674Z" fill="#F2F4F7"/>
<path d="M50.9062 81.8311H30.5447C29.2472 81.8311 28.1953 82.883 28.1953 84.1805C28.1953 85.4781 29.2472 86.5299 30.5447 86.5299H50.9062C52.2037 86.5299 53.2556 85.4781 53.2556 84.1805C53.2556 82.883 52.2037 81.8311 50.9062 81.8311Z" fill="#F3D5B3"/>
<path d="M65.0026 92.012H30.5447C29.2472 92.012 28.1953 93.0638 28.1953 94.3614C28.1953 95.6589 29.2472 96.7108 30.5447 96.7108H65.0026C66.3001 96.7108 67.352 95.6589 67.352 94.3614C67.352 93.0638 66.3001 92.012 65.0026 92.012Z" fill="#F2F4F7"/>
<path d="M50.9062 102.975H30.5447C29.2472 102.975 28.1953 104.027 28.1953 105.324C28.1953 106.622 29.2472 107.674 30.5447 107.674H50.9062C52.2037 107.674 53.2556 106.622 53.2556 105.324C53.2556 104.027 52.2037 102.975 50.9062 102.975Z" fill="#F3D5B3"/>
<path d="M65.0026 113.156H30.5447C29.2472 113.156 28.1953 114.208 28.1953 115.505C28.1953 116.803 29.2472 117.855 30.5447 117.855H65.0026C66.3001 117.855 67.352 116.803 67.352 115.505C67.352 114.208 66.3001 113.156 65.0026 113.156Z" fill="#F2F4F7"/>
<g filter="url(#filter1_d_7102_83339)">
<path d="M92.4097 9H25.0602C22.8976 9 21.1445 10.7531 21.1445 12.9157V36.4097C21.1445 38.5722 22.8976 40.3253 25.0602 40.3253H92.4097C94.5723 40.3253 96.3254 38.5722 96.3254 36.4097V12.9157C96.3254 10.7531 94.5723 9 92.4097 9Z" fill="#F18B1B"/>
</g>
<path d="M50.9023 17.6142H30.5408C29.2433 17.6142 28.1914 18.666 28.1914 19.9636C28.1914 21.2611 29.2433 22.313 30.5408 22.313H50.9023C52.1998 22.313 53.2517 21.2611 53.2517 19.9636C53.2517 18.666 52.1998 17.6142 50.9023 17.6142Z" fill="#F3D5B3"/>
<path d="M64.9987 27.795H30.5408C29.2433 27.795 28.1914 28.8469 28.1914 30.1444C28.1914 31.4419 29.2433 32.4938 30.5408 32.4938H64.9987C66.2962 32.4938 67.3481 31.4419 67.3481 30.1444C67.3481 28.8469 66.2962 27.795 64.9987 27.795Z" fill="white"/>
<defs>
<filter id="filter0_d_7102_83339" x="15.1445" y="39.9398" width="87.1797" height="102.06" filterUnits="userSpaceOnUse" color-interpolation-filters="sRGB">
<feFlood flood-opacity="0" result="BackgroundImageFix"/>
<feColorMatrix in="SourceAlpha" type="matrix" values="0 0 0 0 0 0 0 0 0 0 0 0 0 0 0 0 0 0 127 0" result="hardAlpha"/>
<feOffset dy="-3"/>
<feGaussianBlur stdDeviation="3"/>
<feColorMatrix type="matrix" values="0 0 0 0 0.788235 0 0 0 0 0.803922 0 0 0 0 0.85098 0 0 0 0.349 0"/>
<feBlend mode="normal" in2="BackgroundImageFix" result="effect1_dropShadow_7102_83339"/>
<feBlend mode="normal" in="SourceGraphic" in2="effect1_dropShadow_7102_83339" result="shape"/>
</filter>
<filter id="filter1_d_7102_83339" x="15.1445" y="0" width="87.1797" height="43.3253" filterUnits="userSpaceOnUse" color-interpolation-filters="sRGB">
<feFlood flood-opacity="0" result="BackgroundImageFix"/>
<feColorMatrix in="SourceAlpha" type="matrix" values="0 0 0 0 0 0 0 0 0 0 0 0 0 0 0 0 0 0 127 0" result="hardAlpha"/>
<feOffset dy="-3"/>
<feGaussianBlur stdDeviation="3"/>
<feColorMatrix type="matrix" values="0 0 0 0 0.788235 0 0 0 0 0.803922 0 0 0 0 0.85098 0 0 0 0.349 0"/>
<feBlend mode="normal" in2="BackgroundImageFix" result="effect1_dropShadow_7102_83339"/>
<feBlend mode="normal" in="SourceGraphic" in2="effect1_dropShadow_7102_83339" result="shape"/>
</filter>
<linearGradient id="paint0_linear_7102_83339" x1="58.735" y1="15.2647" x2="58.735" y2="132.735" gradientUnits="userSpaceOnUse">
<stop stop-color="#DCD8EC" stop-opacity="0.12"/>
<stop offset="1" stop-color="#DFE0EB" stop-opacity="0.4"/>
</linearGradient>
</defs>
</svg>

