<svg width="118" height="142" viewBox="0 0 118 142" fill="none" xmlns="http://www.w3.org/2000/svg">
<path d="M58.735 132.735C91.1735 132.735 117.47 106.438 117.47 73.9997C117.47 41.5612 91.1735 15.2646 58.735 15.2646C26.2966 15.2646 0 41.5612 0 73.9997C0 106.438 26.2966 132.735 58.735 132.735Z" fill="url(#paint0_linear_3424_671)"/>
<g filter="url(#filter0_d_3424_671)">
<path d="M92.4102 48.9399H25.0607C22.8981 48.9399 21.145 50.693 21.145 52.8556V135.085C21.145 137.247 22.8981 139 25.0607 139H92.4102C94.5727 139 96.3259 137.247 96.3259 135.085V52.8556C96.3259 50.693 94.5727 48.9399 92.4102 48.9399Z" fill="white"/>
</g>
<path d="M50.9052 60.6865H30.5437C29.2462 60.6865 28.1943 61.7384 28.1943 63.0359C28.1943 64.3335 29.2462 65.3853 30.5437 65.3853H50.9052C52.2028 65.3853 53.2546 64.3335 53.2546 63.0359C53.2546 61.7384 52.2028 60.6865 50.9052 60.6865Z" fill="#E9E8E9"/>
<path d="M65.0016 70.8672H30.5437C29.2462 70.8672 28.1943 71.9191 28.1943 73.2166C28.1943 74.5141 29.2462 75.566 30.5437 75.566H65.0016C66.2992 75.566 67.351 74.5141 67.351 73.2166C67.351 71.9191 66.2992 70.8672 65.0016 70.8672Z" fill="#F2F4F7"/>
<path d="M50.9052 81.8311H30.5437C29.2462 81.8311 28.1943 82.8829 28.1943 84.1805C28.1943 85.478 29.2462 86.5299 30.5437 86.5299H50.9052C52.2028 86.5299 53.2546 85.478 53.2546 84.1805C53.2546 82.8829 52.2028 81.8311 50.9052 81.8311Z" fill="#E9E8E9"/>
<path d="M65.0016 92.0117H30.5437C29.2462 92.0117 28.1943 93.0636 28.1943 94.3611C28.1943 95.6587 29.2462 96.7105 30.5437 96.7105H65.0016C66.2992 96.7105 67.351 95.6587 67.351 94.3611C67.351 93.0636 66.2992 92.0117 65.0016 92.0117Z" fill="#F2F4F7"/>
<path d="M50.9052 102.975H30.5437C29.2462 102.975 28.1943 104.027 28.1943 105.324C28.1943 106.622 29.2462 107.674 30.5437 107.674H50.9052C52.2028 107.674 53.2546 106.622 53.2546 105.324C53.2546 104.027 52.2028 102.975 50.9052 102.975Z" fill="#E9E8E9"/>
<path d="M65.0016 113.156H30.5437C29.2462 113.156 28.1943 114.208 28.1943 115.505C28.1943 116.803 29.2462 117.855 30.5437 117.855H65.0016C66.2992 117.855 67.351 116.803 67.351 115.505C67.351 114.208 66.2992 113.156 65.0016 113.156Z" fill="#F2F4F7"/>
<g filter="url(#filter1_d_3424_671)">
<path d="M92.4097 9H25.0602C22.8976 9 21.1445 10.7531 21.1445 12.9157V36.4097C21.1445 38.5722 22.8976 40.3253 25.0602 40.3253H92.4097C94.5723 40.3253 96.3254 38.5722 96.3254 36.4097V12.9157C96.3254 10.7531 94.5723 9 92.4097 9Z" fill="#A3A2A5"/>
</g>
<path d="M50.9033 17.6143H30.5418C29.2442 17.6143 28.1924 18.6661 28.1924 19.9637C28.1924 21.2612 29.2442 22.3131 30.5418 22.3131H50.9033C52.2008 22.3131 53.2527 21.2612 53.2527 19.9637C53.2527 18.6661 52.2008 17.6143 50.9033 17.6143Z" fill="#E9E8E9"/>
<path d="M64.9997 27.7949H30.5418C29.2442 27.7949 28.1924 28.8468 28.1924 30.1443C28.1924 31.4419 29.2442 32.4937 30.5418 32.4937H64.9997C66.2972 32.4937 67.3491 31.4419 67.3491 30.1443C67.3491 28.8468 66.2972 27.7949 64.9997 27.7949Z" fill="white"/>
<defs>
<filter id="filter0_d_3424_671" x="15.145" y="39.9399" width="87.1807" height="102.061" filterUnits="userSpaceOnUse" color-interpolation-filters="sRGB">
<feFlood flood-opacity="0" result="BackgroundImageFix"/>
<feColorMatrix in="SourceAlpha" type="matrix" values="0 0 0 0 0 0 0 0 0 0 0 0 0 0 0 0 0 0 127 0" result="hardAlpha"/>
<feOffset dy="-3"/>
<feGaussianBlur stdDeviation="3"/>
<feColorMatrix type="matrix" values="0 0 0 0 0.788235 0 0 0 0 0.803922 0 0 0 0 0.85098 0 0 0 0.349 0"/>
<feBlend mode="normal" in2="BackgroundImageFix" result="effect1_dropShadow_3424_671"/>
<feBlend mode="normal" in="SourceGraphic" in2="effect1_dropShadow_3424_671" result="shape"/>
</filter>
<filter id="filter1_d_3424_671" x="15.1445" y="0" width="87.1807" height="43.3252" filterUnits="userSpaceOnUse" color-interpolation-filters="sRGB">
<feFlood flood-opacity="0" result="BackgroundImageFix"/>
<feColorMatrix in="SourceAlpha" type="matrix" values="0 0 0 0 0 0 0 0 0 0 0 0 0 0 0 0 0 0 127 0" result="hardAlpha"/>
<feOffset dy="-3"/>
<feGaussianBlur stdDeviation="3"/>
<feColorMatrix type="matrix" values="0 0 0 0 0.788235 0 0 0 0 0.803922 0 0 0 0 0.85098 0 0 0 0.349 0"/>
<feBlend mode="normal" in2="BackgroundImageFix" result="effect1_dropShadow_3424_671"/>
<feBlend mode="normal" in="SourceGraphic" in2="effect1_dropShadow_3424_671" result="shape"/>
</filter>
<linearGradient id="paint0_linear_3424_671" x1="58.735" y1="15.2646" x2="58.735" y2="132.735" gradientUnits="userSpaceOnUse">
<stop stop-color="#DCD8EC" stop-opacity="0.12"/>
<stop offset="1" stop-color="#DFE0EB" stop-opacity="0.4"/>
</linearGradient>
</defs>
</svg>
