<svg width="40" height="40" viewBox="0 0 40 40" fill="none" xmlns="http://www.w3.org/2000/svg">
<circle cx="20" cy="20" r="20" fill="#FEF3E8"/>
<path d="M13.3267 18.3545H12.8267V18.8545V25.5003C12.8267 26.6832 12.9689 27.6234 13.5758 28.2303C14.1828 28.8373 15.123 28.9795 16.3058 28.9795H23.6392C24.822 28.9795 25.7622 28.8373 26.3692 28.2303C26.9761 27.6234 27.1183 26.6832 27.1183 25.5003V18.8545V18.3545H26.6183H13.3267ZM23.6392 29.3545H16.3058C14.7842 29.3545 13.8623 29.0551 13.3067 28.4995C12.7511 27.9439 12.4517 27.0219 12.4517 25.5003V18.167C12.4517 18.0673 12.5395 17.9795 12.6392 17.9795H27.3058C27.4055 17.9795 27.4933 18.0673 27.4933 18.167V25.5003C27.4933 27.0219 27.1939 27.9439 26.6383 28.4995C26.0827 29.0551 25.1608 29.3545 23.6392 29.3545Z" fill="url(#paint0_linear_3539_97725)" stroke="url(#paint1_linear_3539_97725)"/>
<path d="M26.875 18.3538H13.125C12.4169 18.3538 11.9283 18.1532 11.6165 17.8414C11.3048 17.5297 11.1041 17.0411 11.1041 16.333V15.4163C11.1041 14.7083 11.3048 14.2197 11.6165 13.9079C11.9283 13.5961 12.4169 13.3955 13.125 13.3955H26.875C27.5502 13.3955 28.043 13.6019 28.3662 13.9251C28.6894 14.2483 28.8958 14.7411 28.8958 15.4163V16.333C28.8958 17.0082 28.6894 17.5011 28.3662 17.8242C28.043 18.1474 27.5502 18.3538 26.875 18.3538ZM13.125 13.7705C12.6668 13.7705 12.2109 13.8518 11.8857 14.1771C11.5604 14.5023 11.4791 14.9582 11.4791 15.4163V16.333C11.4791 16.7912 11.5604 17.247 11.8857 17.5723C12.2109 17.8975 12.6668 17.9788 13.125 17.9788H26.875C27.3337 17.9788 27.7813 17.8846 28.1039 17.562C28.4266 17.2393 28.5208 16.7918 28.5208 16.333V15.4163C28.5208 14.9576 28.4266 14.51 28.1039 14.1874C27.7813 13.8647 27.3337 13.7705 26.875 13.7705H13.125Z" fill="url(#paint2_linear_3539_97725)" stroke="url(#paint3_linear_3539_97725)"/>
<path d="M19.8429 13.6522L19.8399 13.6592L19.8371 13.6663C19.8145 13.724 19.7569 13.7708 19.67 13.7708H14.61C14.5602 13.7708 14.509 13.7489 14.473 13.7114C14.0946 13.2928 14.11 12.6546 14.5052 12.2594L15.8069 10.9577C16.2166 10.548 16.8992 10.548 17.309 10.9577L19.8023 13.451C19.8543 13.503 19.8701 13.5887 19.8429 13.6522ZM14.6142 12.8958V13.3958H15.1142H18.02H19.233L18.3723 12.541L17.0444 11.2223C17.0441 11.222 17.0439 11.2218 17.0436 11.2215C16.775 10.9537 16.3398 10.9539 16.0715 11.2223L14.7698 12.5239L14.6233 12.6704V12.7993C14.6215 12.809 14.6199 12.8187 14.6186 12.8284C14.6155 12.8518 14.6142 12.8743 14.6142 12.8958ZM15.4723 13.2402L15.4731 13.2394L15.4723 13.2402ZM14.7652 12.5331L14.7644 12.5339L14.7652 12.5331Z" fill="url(#paint4_linear_3539_97725)" stroke="url(#paint5_linear_3539_97725)"/>
<path d="M20.1537 13.6663L20.1509 13.6592L20.1479 13.6522C20.1234 13.5952 20.1307 13.514 20.1937 13.4458L22.6818 10.9577C23.0916 10.548 23.7742 10.548 24.1839 10.9577L25.4856 12.2594C25.7125 12.4863 25.8157 12.7901 25.7924 13.0861L25.2485 12.5423L25.2393 12.5331L25.2302 12.5239L23.9285 11.2223C23.6599 10.9537 23.2242 10.9537 22.9556 11.2223L21.6356 12.5423L20.782 13.3958H21.9891H24.895H25.7191C25.6732 13.5086 25.6065 13.6153 25.5189 13.7102C25.4829 13.7485 25.4311 13.7708 25.3808 13.7708H20.3208C20.2391 13.7708 20.175 13.7205 20.1537 13.6663Z" fill="url(#paint6_linear_3539_97725)" stroke="url(#paint7_linear_3539_97725)"/>
<path d="M18.1116 24.492C17.8549 24.492 17.5891 24.4278 17.3508 24.2995C16.8283 24.0153 16.5074 23.4745 16.5074 22.8878V18.167C16.5074 17.7912 16.8191 17.4795 17.1949 17.4795H22.7316C23.1074 17.4795 23.4191 17.7912 23.4191 18.167V22.8695C23.4191 23.4653 23.0983 24.0062 22.5758 24.2812C22.0533 24.5653 21.4208 24.5287 20.9258 24.1987L20.1099 23.6487C20.0366 23.5937 19.9358 23.5937 19.8533 23.6487L18.9916 24.217C18.7258 24.4003 18.4141 24.492 18.1116 24.492ZM17.8824 18.8545V22.8787C17.8824 22.9978 17.9558 23.0528 18.0016 23.0803C18.0474 23.1078 18.1391 23.1353 18.2399 23.0712L19.1016 22.5028C19.6424 22.1453 20.3391 22.1453 20.8708 22.5028L21.6866 23.0528C21.7874 23.117 21.8791 23.0895 21.9249 23.062C21.9708 23.0345 22.0441 22.9795 22.0441 22.8603V18.8453H17.8824V18.8545Z" fill="url(#paint8_linear_3539_97725)"/>
<defs>
<linearGradient id="paint0_linear_3539_97725" x1="11.9517" y1="17.4795" x2="23.9213" y2="32.9957" gradientUnits="userSpaceOnUse">
<stop stop-color="#F18B1B"/>
<stop offset="1" stop-color="#E52053"/>
</linearGradient>
<linearGradient id="paint1_linear_3539_97725" x1="11.9517" y1="17.4795" x2="23.9213" y2="32.9957" gradientUnits="userSpaceOnUse">
<stop stop-color="#F18B1B"/>
<stop offset="1" stop-color="#E52053"/>
</linearGradient>
<linearGradient id="paint2_linear_3539_97725" x1="10.6041" y1="12.8955" x2="14.0374" y2="23.7236" gradientUnits="userSpaceOnUse">
<stop stop-color="#F18B1B"/>
<stop offset="1" stop-color="#E52053"/>
</linearGradient>
<linearGradient id="paint3_linear_3539_97725" x1="10.6041" y1="12.8955" x2="14.0374" y2="23.7236" gradientUnits="userSpaceOnUse">
<stop stop-color="#F18B1B"/>
<stop offset="1" stop-color="#E52053"/>
</linearGradient>
<linearGradient id="paint4_linear_3539_97725" x1="13.6987" y1="10.1504" x2="17.3865" y2="16.1088" gradientUnits="userSpaceOnUse">
<stop stop-color="#F18B1B"/>
<stop offset="1" stop-color="#E52053"/>
</linearGradient>
<linearGradient id="paint5_linear_3539_97725" x1="13.6987" y1="10.1504" x2="17.3865" y2="16.1088" gradientUnits="userSpaceOnUse">
<stop stop-color="#F18B1B"/>
<stop offset="1" stop-color="#E52053"/>
</linearGradient>
<linearGradient id="paint6_linear_3539_97725" x1="19.6346" y1="10.1504" x2="23.3215" y2="16.1105" gradientUnits="userSpaceOnUse">
<stop stop-color="#F18B1B"/>
<stop offset="1" stop-color="#E52053"/>
</linearGradient>
<linearGradient id="paint7_linear_3539_97725" x1="19.6346" y1="10.1504" x2="23.3215" y2="16.1105" gradientUnits="userSpaceOnUse">
<stop stop-color="#F18B1B"/>
<stop offset="1" stop-color="#E52053"/>
</linearGradient>
<linearGradient id="paint8_linear_3539_97725" x1="16.5074" y1="17.4795" x2="23.5192" y2="24.3904" gradientUnits="userSpaceOnUse">
<stop stop-color="#F18B1B"/>
<stop offset="1" stop-color="#E52053"/>
</linearGradient>
</defs>
</svg>
