<svg width="16" height="16" viewBox="0 0 16 16" fill="none" xmlns="http://www.w3.org/2000/svg">
<path fill-rule="evenodd" clip-rule="evenodd" d="M3.58874 11.3678C3.41559 11.5763 3.42246 11.8887 3.61499 12.0948C3.82356 12.3181 4.17142 12.3326 4.39147 12.1271L11.3989 5.5824L11.2568 10.5053L11.2596 10.58C11.288 10.8497 11.5122 11.0661 11.7903 11.0786C12.0931 11.0917 12.3461 10.8564 12.3547 10.5535L12.535 4.30019L12.5324 4.22637C12.5199 4.10481 12.4668 3.99171 12.3849 3.90405C12.336 3.85173 12.2771 3.80884 12.2105 3.77807C12.0073 3.68408 11.77 3.72089 11.6084 3.8718L3.63577 11.3179L3.58874 11.3678ZM5.18664 4.0081C5.17955 4.31164 5.41885 4.56787 5.72223 4.57943L9.16998 4.7154L9.24475 4.71336C9.51407 4.68772 9.72588 4.46637 9.73238 4.18812C9.73592 4.03635 9.6785 3.89709 9.58227 3.79406C9.48504 3.68995 9.34951 3.62262 9.19679 3.61679L5.74956 3.48033L5.6749 3.4825C5.40589 3.50862 5.19359 3.73035 5.18664 4.0081Z" fill="#475467"/>
</svg>
