<svg width="15" height="15" viewBox="0 0 15 15" fill="none" xmlns="http://www.w3.org/2000/svg">
<g clip-path="url(#clip0_6740_4089)">
<path d="M9.375 2.86375V7.5C9.37479 7.89798 9.24796 8.28556 9.01285 8.60667C8.77775 8.92778 8.44657 9.16575 8.06725 9.28615C7.68792 9.40655 7.28012 9.40313 6.90287 9.27639C6.52561 9.14965 6.19847 8.90615 5.96879 8.58115C5.7391 8.25614 5.61878 7.86648 5.62525 7.46856C5.63171 7.07064 5.76462 6.68509 6.00475 6.36772C6.24487 6.05034 6.57975 5.81761 6.96092 5.70318C7.34209 5.58876 7.74978 5.59859 8.125 5.73125V1.28125C11.2831 1.59437 13.75 4.25937 13.75 7.5C13.75 10.9519 10.9519 13.75 7.5 13.75C4.04813 13.75 1.25 10.9519 1.25 7.5C1.25 4.25937 3.71688 1.59437 6.875 1.28125V2.53875C5.61419 2.69918 4.46178 3.33367 3.65199 4.31326C2.8422 5.29286 2.4358 6.54404 2.51539 7.81252C2.59498 9.08099 3.15458 10.2716 4.08047 11.1423C5.00635 12.013 6.22903 12.4984 7.5 12.5C8.66084 12.5006 9.78573 12.0974 10.6817 11.3593C11.5777 10.6213 12.189 9.59445 12.4107 8.45498C12.6325 7.31551 12.4508 6.1344 11.8969 5.11424C11.343 4.09407 10.4514 3.29842 9.375 2.86375Z" fill="#1E1D24"/>
</g>
<defs>
<clipPath id="clip0_6740_4089">
<rect width="15" height="15" fill="white"/>
</clipPath>
</defs>
</svg>
