<svg width="18" height="16" viewBox="0 0 18 16" fill="none" xmlns="http://www.w3.org/2000/svg">
<path d="M12.7493 0C15.281 0 17.3327 2.08333 17.3327 5C17.3327 10.8333 11.0827 14.1667 8.99935 15.4167C6.91602 14.1667 0.666016 10.8333 0.666016 5C0.666016 2.08333 2.74935 0 5.24935 0C6.79935 0 8.16602 0.833333 8.99935 1.66667C9.83268 0.833333 11.1993 0 12.7493 0ZM9.77768 13.0033C10.5118 12.54 11.1743 12.0792 11.7943 11.5858C14.2785 9.61083 15.666 7.4525 15.666 5C15.666 3.03333 14.3852 1.66667 12.7493 1.66667C11.8527 1.66667 10.8827 2.14167 10.1777 2.845L8.99935 4.02333L7.82102 2.845C7.11602 2.14167 6.14602 1.66667 5.24935 1.66667C3.63268 1.66667 2.33268 3.04667 2.33268 5C2.33268 7.45333 3.72102 9.61083 6.20352 11.5858C6.82435 12.0792 7.48685 12.54 8.22102 13.0025C8.47018 13.16 8.71685 13.3108 8.99935 13.4792C9.28185 13.3108 9.52852 13.16 9.77768 13.0033V13.0033Z" fill="#626E8B"/>
</svg>
