<svg width="16" height="17" viewBox="0 0 16 17" fill="none" xmlns="http://www.w3.org/2000/svg">
<path d="M7.99962 4.5C6.55362 4.5 5.37695 5.67667 5.37695 7.12267H6.71029C6.71029 6.41133 7.28895 5.83333 7.99962 5.83333C8.71029 5.83333 9.28895 6.41133 9.28895 7.12267C9.28895 7.52133 8.96829 7.81067 8.47829 8.20667C8.30829 8.34467 8.14762 8.476 8.01762 8.606C7.35229 9.27067 7.33295 9.97667 7.33295 10.0553V10.5H8.66629L8.66562 10.078C8.66629 10.0673 8.68762 9.82067 8.95962 9.54933C9.05962 9.44933 9.18562 9.34933 9.31629 9.244C9.83562 8.82333 10.6216 8.188 10.6216 7.12267C10.6223 5.67667 9.44562 4.5 7.99962 4.5ZM7.33295 11.1667H8.66629V12.5H7.33295V11.1667Z" fill="#595D6E"/>
<path d="M7.99967 1.83325C4.32367 1.83325 1.33301 4.82392 1.33301 8.49992C1.33301 12.1759 4.32367 15.1666 7.99967 15.1666C11.6757 15.1666 14.6663 12.1759 14.6663 8.49992C14.6663 4.82392 11.6757 1.83325 7.99967 1.83325ZM7.99967 13.8333C5.05901 13.8333 2.66634 11.4406 2.66634 8.49992C2.66634 5.55925 5.05901 3.16659 7.99967 3.16659C10.9403 3.16659 13.333 5.55925 13.333 8.49992C13.333 11.4406 10.9403 13.8333 7.99967 13.8333Z" fill="#595D6E"/>
</svg>
