<svg width="20" height="20" viewBox="0 0 20 20" fill="none" xmlns="http://www.w3.org/2000/svg">
<path d="M15.832 17.5001H4.16536C3.94435 17.5001 3.73239 17.4123 3.57611 17.256C3.41983 17.0997 3.33203 16.8878 3.33203 16.6668V9.16676H0.832031L9.43786 1.34343C9.59129 1.20383 9.79126 1.12646 9.9987 1.12646C10.2061 1.12646 10.4061 1.20383 10.5595 1.34343L19.1654 9.16676H16.6654V16.6668C16.6654 16.8878 16.5776 17.0997 16.4213 17.256C16.265 17.4123 16.053 17.5001 15.832 17.5001ZM4.9987 15.8334H14.9987V7.63093L9.9987 3.08593L4.9987 7.63093V15.8334ZM6.66536 12.5001H13.332V14.1668H6.66536V12.5001Z" fill=""/>
</svg>
