<svg width="20" height="21" viewBox="0 0 20 21" fill="none" xmlns="http://www.w3.org/2000/svg">
<path d="M10 7.5C9.20435 7.5 8.44129 7.81607 7.87868 8.37868C7.31607 8.94129 7 9.70435 7 10.5C7 11.2956 7.31607 12.0587 7.87868 12.6213C8.44129 13.1839 9.20435 13.5 10 13.5C10.7956 13.5 11.5587 13.1839 12.1213 12.6213C12.6839 12.0587 13 11.2956 13 10.5C13 9.70435 12.6839 8.94129 12.1213 8.37868C11.5587 7.81607 10.7956 7.5 10 7.5ZM10 5.5C11.3261 5.5 12.5979 6.02678 13.5355 6.96447C14.4732 7.90215 15 9.17392 15 10.5C15 11.8261 14.4732 13.0979 13.5355 14.0355C12.5979 14.9732 11.3261 15.5 10 15.5C8.67392 15.5 7.40215 14.9732 6.46447 14.0355C5.52678 13.0979 5 11.8261 5 10.5C5 9.17392 5.52678 7.90215 6.46447 6.96447C7.40215 6.02678 8.67392 5.5 10 5.5ZM16.5 5.25C16.5 5.58152 16.3683 5.89946 16.1339 6.13388C15.8995 6.3683 15.5815 6.5 15.25 6.5C14.9185 6.5 14.6005 6.3683 14.3661 6.13388C14.1317 5.89946 14 5.58152 14 5.25C14 4.91848 14.1317 4.60054 14.3661 4.36612C14.6005 4.1317 14.9185 4 15.25 4C15.5815 4 15.8995 4.1317 16.1339 4.36612C16.3683 4.60054 16.5 4.91848 16.5 5.25ZM10 2.5C7.526 2.5 7.122 2.507 5.971 2.558C5.187 2.595 4.661 2.7 4.173 2.89C3.739 3.058 3.426 3.259 3.093 3.593C2.78001 3.8954 2.53935 4.26458 2.389 4.673C2.199 5.163 2.094 5.688 2.058 6.471C2.006 7.575 2 7.961 2 10.5C2 12.974 2.007 13.378 2.058 14.529C2.095 15.312 2.2 15.839 2.389 16.326C2.559 16.761 2.759 17.074 3.091 17.406C3.428 17.742 3.741 17.943 4.171 18.109C4.665 18.3 5.191 18.406 5.971 18.442C7.075 18.494 7.461 18.5 10 18.5C12.474 18.5 12.878 18.493 14.029 18.442C14.811 18.405 15.338 18.3 15.826 18.111C16.259 17.942 16.574 17.741 16.906 17.409C17.243 17.072 17.444 16.759 17.61 16.329C17.8 15.836 17.906 15.309 17.942 14.529C17.994 13.425 18 13.039 18 10.5C18 8.026 17.993 7.622 17.942 6.471C17.905 5.689 17.8 5.161 17.61 4.673C17.4593 4.265 17.2191 3.89596 16.907 3.593C16.6047 3.27985 16.2355 3.03917 15.827 2.889C15.337 2.699 14.811 2.594 14.029 2.558C12.925 2.506 12.539 2.5 10 2.5ZM10 0.5C12.717 0.5 13.056 0.51 14.122 0.56C15.187 0.61 15.912 0.777 16.55 1.025C17.21 1.279 17.766 1.623 18.322 2.178C18.8305 2.6779 19.224 3.28259 19.475 3.95C19.722 4.587 19.89 5.313 19.94 6.378C19.987 7.444 20 7.783 20 10.5C20 13.217 19.99 13.556 19.94 14.622C19.89 15.687 19.722 16.412 19.475 17.05C19.2247 17.7178 18.8311 18.3226 18.322 18.822C17.822 19.3303 17.2173 19.7238 16.55 19.975C15.913 20.222 15.187 20.39 14.122 20.44C13.056 20.487 12.717 20.5 10 20.5C7.283 20.5 6.944 20.49 5.878 20.44C4.813 20.39 4.088 20.222 3.45 19.975C2.78233 19.7245 2.17753 19.3309 1.678 18.822C1.16941 18.3222 0.775931 17.7175 0.525 17.05C0.277 16.413 0.11 15.687 0.0599999 14.622C0.0129999 13.556 0 13.217 0 10.5C0 7.783 0.00999994 7.444 0.0599999 6.378C0.11 5.312 0.277 4.588 0.525 3.95C0.775236 3.28218 1.1688 2.67732 1.678 2.178C2.17767 1.66923 2.78243 1.27573 3.45 1.025C4.088 0.777 4.812 0.61 5.878 0.56C6.944 0.513 7.283 0.5 10 0.5Z" fill=""/>
</svg>
