<svg width="16" height="17" viewBox="0 0 16 17" fill="none" xmlns="http://www.w3.org/2000/svg">
<path d="M10.1599 15.3467H10.0733C7.11326 15.3467 5.6866 14.18 5.43993 11.5667C5.41326 11.2933 5.61326 11.0467 5.89326 11.02C6.15993 10.9933 6.41326 11.2 6.43993 11.4733C6.63326 13.5667 7.61993 14.3467 10.0799 14.3467H10.1666C12.8799 14.3467 13.8399 13.3867 13.8399 10.6733V6.32667C13.8399 3.61333 12.8799 2.65333 10.1666 2.65333H10.0799C7.6066 2.65333 6.61993 3.44667 6.43993 5.58C6.4066 5.85333 6.17326 6.06 5.89326 6.03333C5.61326 6.01333 5.41326 5.76667 5.43326 5.49333C5.65993 2.84 7.09326 1.65333 10.0733 1.65333H10.1599C13.4333 1.65333 14.8333 3.05333 14.8333 6.32667V10.6733C14.8333 13.9467 13.4333 15.3467 10.1599 15.3467Z" fill="white"/>
<path d="M10 9H2.41333C2.14 9 1.91333 8.77333 1.91333 8.5C1.91333 8.22667 2.14 8 2.41333 8H10C10.2733 8 10.5 8.22667 10.5 8.5C10.5 8.77333 10.2733 9 10 9Z" fill="white"/>
<path d="M3.89988 11.2333C3.77321 11.2333 3.64655 11.1867 3.54655 11.0867L1.31321 8.85333C1.11988 8.66 1.11988 8.34 1.31321 8.14667L3.54655 5.91333C3.73988 5.72 4.05988 5.72 4.25321 5.91333C4.44655 6.10667 4.44655 6.42667 4.25321 6.62L2.37321 8.5L4.25321 10.38C4.44655 10.5733 4.44655 10.8933 4.25321 11.0867C4.15988 11.1867 4.02655 11.2333 3.89988 11.2333Z" fill="white"/>
</svg>
