<svg width="25" height="24" viewBox="0 0 25 24" fill="none" xmlns="http://www.w3.org/2000/svg">
<path d="M12.5201 20.5299C10.1901 20.5299 7.86011 20.1599 5.65011 19.4199C4.81011 19.1299 4.17011 18.5399 3.89011 17.7699C3.60011 16.9999 3.70011 16.1499 4.16011 15.3899L5.31011 13.4799C5.55011 13.0799 5.77011 12.2799 5.77011 11.8099V8.91992C5.77011 5.19992 8.80011 2.16992 12.5201 2.16992C16.2401 2.16992 19.2701 5.19992 19.2701 8.91992V11.8099C19.2701 12.2699 19.4901 13.0799 19.7301 13.4899L20.8701 15.3899C21.3001 16.1099 21.3801 16.9799 21.0901 17.7699C20.8001 18.5599 20.1701 19.1599 19.3801 19.4199C17.1801 20.1599 14.8501 20.5299 12.5201 20.5299ZM12.5201 3.66992C9.63011 3.66992 7.27011 6.01992 7.27011 8.91992V11.8099C7.27011 12.5399 6.97011 13.6199 6.60011 14.2499L5.45011 16.1599C5.23011 16.5299 5.17011 16.9199 5.30011 17.2499C5.42011 17.5899 5.72011 17.8499 6.13011 17.9899C10.3101 19.3899 14.7401 19.3899 18.9201 17.9899C19.2801 17.8699 19.5601 17.5999 19.6901 17.2399C19.8201 16.8799 19.7901 16.4899 19.5901 16.1599L18.4401 14.2499C18.0601 13.5999 17.7701 12.5299 17.7701 11.7999V8.91992C17.7701 6.01992 15.4201 3.66992 12.5201 3.66992Z" fill="#A3A2A5"/>
<path d="M14.3801 3.93993C14.3101 3.93993 14.2401 3.92993 14.1701 3.90993C13.8801 3.82993 13.6001 3.76993 13.3301 3.72993C12.4801 3.61993 11.6601 3.67993 10.8901 3.90993C10.6101 3.99993 10.3101 3.90993 10.1201 3.69993C9.93011 3.48993 9.87011 3.18993 9.98011 2.91993C10.3901 1.86993 11.3901 1.17993 12.5301 1.17993C13.6701 1.17993 14.6701 1.85993 15.0801 2.91993C15.1801 3.18993 15.1301 3.48993 14.9401 3.69993C14.7901 3.85993 14.5801 3.93993 14.3801 3.93993Z" fill="#A3A2A5"/>
<path d="M12.52 22.8101C11.53 22.8101 10.57 22.4101 9.87002 21.7101C9.17002 21.0101 8.77002 20.0501 8.77002 19.0601H10.27C10.27 19.6501 10.51 20.2301 10.93 20.6501C11.35 21.0701 11.93 21.3101 12.52 21.3101C13.76 21.3101 14.77 20.3001 14.77 19.0601H16.27C16.27 21.1301 14.59 22.8101 12.52 22.8101Z" fill="#A3A2A5"/>
</svg>
