<svg width="20" class="fill-current" height="17" viewBox="0 0 20 17" fill="none" xmlns="http://www.w3.org/2000/svg">
<path d="M12.5 0.666753C13.0853 0.666684 13.6602 0.820697 14.1671 1.11331C14.6739 1.40592 15.0948 1.82681 15.3873 2.33366C15.6799 2.84052 15.8339 3.41547 15.8338 4.00071C15.8337 4.58595 15.6795 5.16084 15.3867 5.66759L19.1667 5.66675V7.33342H17.5V15.6668C17.5 15.8878 17.4122 16.0997 17.256 16.256C17.0997 16.4123 16.8877 16.5001 16.6667 16.5001H3.33337C3.11236 16.5001 2.9004 16.4123 2.74412 16.256C2.58784 16.0997 2.50004 15.8878 2.50004 15.6668V7.33342H0.833374V5.66675L4.61337 5.66759C4.19993 4.95166 4.06728 4.10763 4.24119 3.2994C4.4151 2.49116 4.88316 1.77639 5.55449 1.29388C6.22581 0.811367 7.05248 0.595545 7.874 0.688319C8.69551 0.781093 9.45323 1.17584 10 1.79592C10.3122 1.4404 10.6968 1.15573 11.1279 0.960985C11.5591 0.766238 12.0269 0.66592 12.5 0.666753ZM9.16671 7.33342H4.16671V14.8334H9.16671V7.33342ZM15.8334 7.33342H10.8334V14.8334H15.8334V7.33342ZM7.50004 2.33342C7.06755 2.33148 6.65125 2.49774 6.33908 2.79707C6.02691 3.0964 5.84332 3.50535 5.82709 3.93754C5.81086 4.36972 5.96327 4.79129 6.25212 5.11318C6.54096 5.43508 6.94363 5.63209 7.37504 5.66259L7.50004 5.66675H9.16671V4.00009C9.16672 3.6018 9.02411 3.21668 8.7647 2.91447C8.50529 2.61225 8.14623 2.41293 7.75254 2.35259L7.62421 2.33759L7.50004 2.33342ZM12.5 2.33342C12.0796 2.33329 11.6746 2.49209 11.3663 2.778C11.0579 3.06391 10.8691 3.45579 10.8375 3.87509L10.8334 4.00009V5.66675H12.5C12.9205 5.66689 13.3255 5.50808 13.6338 5.22217C13.9421 4.93626 14.131 4.54438 14.1625 4.12509L14.1667 4.00009C14.1667 3.55806 13.9911 3.13414 13.6786 2.82158C13.366 2.50901 12.9421 2.33342 12.5 2.33342Z" fill=""/>
</svg>
