<svg class="fill-current" width="14" height="15" viewBox="0 0 14 15" fill="none" xmlns="http://www.w3.org/2000/svg">
<path d="M2.33203 13.3333C2.33203 12.0956 2.8237 10.9086 3.69887 10.0334C4.57404 9.15825 5.76102 8.66658 6.9987 8.66658C8.23638 8.66658 9.42336 9.15825 10.2985 10.0334C11.1737 10.9086 11.6654 12.0956 11.6654 13.3333H10.4987C10.4987 12.405 10.13 11.5148 9.47357 10.8584C8.8172 10.202 7.92696 9.83325 6.9987 9.83325C6.07044 9.83325 5.1802 10.202 4.52382 10.8584C3.86745 11.5148 3.4987 12.405 3.4987 13.3333H2.33203ZM6.9987 8.08325C5.06495 8.08325 3.4987 6.517 3.4987 4.58325C3.4987 2.6495 5.06495 1.08325 6.9987 1.08325C8.93245 1.08325 10.4987 2.6495 10.4987 4.58325C10.4987 6.517 8.93245 8.08325 6.9987 8.08325ZM6.9987 6.91658C8.28787 6.91658 9.33203 5.87242 9.33203 4.58325C9.33203 3.29409 8.28787 2.24992 6.9987 2.24992C5.70953 2.24992 4.66536 3.29409 4.66536 4.58325C4.66536 5.87242 5.70953 6.91658 6.9987 6.91658Z" fill=""/>
</svg>
