<svg width="16" height="17" viewBox="0 0 16 17" fill="none" xmlns="http://www.w3.org/2000/svg">
<path d="M7.66683 15.0002C3.90016 15.0002 0.833496 11.9335 0.833496 8.16683C0.833496 4.40016 3.90016 1.3335 7.66683 1.3335C11.4335 1.3335 14.5002 4.40016 14.5002 8.16683C14.5002 11.9335 11.4335 15.0002 7.66683 15.0002ZM7.66683 2.3335C4.44683 2.3335 1.8335 4.9535 1.8335 8.16683C1.8335 11.3802 4.44683 14.0002 7.66683 14.0002C10.8868 14.0002 13.5002 11.3802 13.5002 8.16683C13.5002 4.9535 10.8868 2.3335 7.66683 2.3335Z" fill="#A3A2A5"/>
<path d="M14.6666 15.6666C14.54 15.6666 14.4133 15.62 14.3133 15.52L12.98 14.1866C12.7866 13.9933 12.7866 13.6733 12.98 13.48C13.1733 13.2866 13.4933 13.2866 13.6866 13.48L15.02 14.8133C15.2133 15.0066 15.2133 15.3266 15.02 15.52C14.92 15.62 14.7933 15.6666 14.6666 15.6666Z" fill="#A3A2A5"/>
</svg>
