<svg width="20" height="20" viewBox="0 0 20 20" fill="none" xmlns="http://www.w3.org/2000/svg">
<g clip-path="url(#clip0_5875_3759)">
<path d="M10.0007 0.833374L17.9173 5.41671V14.5834L10.0007 19.1667L2.08398 14.5834V5.41671L10.0007 0.833374ZM10.0007 2.75921L3.75065 6.37754V13.6225L10.0007 17.2409L16.2507 13.6225V6.37754L10.0007 2.75921ZM10.0007 13.3334C9.1166 13.3334 8.26875 12.9822 7.64363 12.3571C7.01851 11.7319 6.66732 10.8841 6.66732 10C6.66732 9.11598 7.01851 8.26814 7.64363 7.64302C8.26875 7.0179 9.1166 6.66671 10.0007 6.66671C10.8847 6.66671 11.7326 7.0179 12.3577 7.64302C12.9828 8.26814 13.334 9.11598 13.334 10C13.334 10.8841 12.9828 11.7319 12.3577 12.3571C11.7326 12.9822 10.8847 13.3334 10.0007 13.3334ZM10.0007 11.6667C10.4427 11.6667 10.8666 11.4911 11.1792 11.1786C11.4917 10.866 11.6673 10.4421 11.6673 10C11.6673 9.55801 11.4917 9.13409 11.1792 8.82153C10.8666 8.50897 10.4427 8.33337 10.0007 8.33337C9.55862 8.33337 9.1347 8.50897 8.82214 8.82153C8.50958 9.13409 8.33398 9.55801 8.33398 10C8.33398 10.4421 8.50958 10.866 8.82214 11.1786C9.1347 11.4911 9.55862 11.6667 10.0007 11.6667Z" />
</g>
<defs>
<clipPath id="clip0_5875_3759">
<rect width="20" height="20" fill=""/>
</clipPath>
</defs>
</svg>
