<svg width="16" height="17" viewBox="0 0 16 17" fill="none" xmlns="http://www.w3.org/2000/svg">
<path d="M9.99992 15.6666H5.99992C2.37992 15.6666 0.833252 14.12 0.833252 10.5V6.49998C0.833252 2.87998 2.37992 1.33331 5.99992 1.33331H9.99992C13.6199 1.33331 15.1666 2.87998 15.1666 6.49998V10.5C15.1666 14.12 13.6199 15.6666 9.99992 15.6666ZM5.99992 2.33331C2.92658 2.33331 1.83325 3.42665 1.83325 6.49998V10.5C1.83325 13.5733 2.92658 14.6666 5.99992 14.6666H9.99992C13.0733 14.6666 14.1666 13.5733 14.1666 10.5V6.49998C14.1666 3.42665 13.0733 2.33331 9.99992 2.33331H5.99992Z" fill=""/>
<path d="M6.66675 15.6666C6.39341 15.6666 6.16675 15.44 6.16675 15.1666V1.83331C6.16675 1.55998 6.39341 1.33331 6.66675 1.33331C6.94008 1.33331 7.16675 1.55998 7.16675 1.83331V15.1666C7.16675 15.44 6.94008 15.6666 6.66675 15.6666Z" fill=""/>
<path d="M14.6667 9H6.66675C6.39341 9 6.16675 8.77333 6.16675 8.5C6.16675 8.22667 6.39341 8 6.66675 8H14.6667C14.9401 8 15.1667 8.22667 15.1667 8.5C15.1667 8.77333 14.9401 9 14.6667 9Z" fill=""/>
</svg>
