<svg width="165" height="156" viewBox="0 0 165 156" fill="none" xmlns="http://www.w3.org/2000/svg">
<path opacity="0.75" d="M81.9685 113.125C101.409 113.125 117.169 97.3924 117.169 77.985C117.169 58.5776 101.409 42.8447 81.9685 42.8447C62.5276 42.8447 46.7676 58.5776 46.7676 77.985C46.7676 97.3924 62.5276 113.125 81.9685 113.125Z" stroke="#1E1D24" stroke-width="0.633663" stroke-linecap="round" stroke-linejoin="round" stroke-dasharray="1.9 3.17"/>
<path opacity="0.5" d="M81.7678 125.575C107.985 125.575 129.239 104.358 129.239 78.1855C129.239 52.0132 107.985 30.7964 81.7678 30.7964C55.5504 30.7964 34.2969 52.0132 34.2969 78.1855C34.2969 104.358 55.5504 125.575 81.7678 125.575Z" stroke="#1E1D24" stroke-width="0.633663" stroke-linecap="round" stroke-linejoin="round" stroke-dasharray="1.9 3.17"/>
<path opacity="0.2" d="M81.9677 136.82C114.295 136.82 140.502 110.568 140.502 78.1858C140.502 45.8031 114.295 19.5518 81.9677 19.5518C49.6402 19.5518 23.4336 45.8031 23.4336 78.1858C23.4336 110.568 49.6402 136.82 81.9677 136.82Z" stroke="#1E1D24" stroke-width="0.633663" stroke-linecap="round" stroke-linejoin="round" stroke-dasharray="1.9 3.17"/>
<path opacity="0.1" fill-rule="evenodd" clip-rule="evenodd" d="M148.374 26.2568C149.594 26.2568 150.583 27.1975 150.583 28.3578C150.583 29.5181 149.594 30.4587 148.374 30.4587C147.155 30.4587 146.166 29.5181 146.166 28.3578C146.166 27.1975 147.155 26.2568 148.374 26.2568Z" fill="#1E1D24"/>
<path opacity="0.1" fill-rule="evenodd" clip-rule="evenodd" d="M122.763 74.0669C123.983 74.0669 124.972 75.0075 124.972 76.1679C124.972 77.3282 123.983 78.2688 122.763 78.2688C121.543 78.2688 120.555 77.3282 120.555 76.1679C120.555 75.0075 121.543 74.0669 122.763 74.0669Z" fill="#1E1D24"/>
<path fill-rule="evenodd" clip-rule="evenodd" d="M102.191 32.3486C103.411 32.3486 104.399 33.2893 104.399 34.4496C104.399 35.6099 103.411 36.5505 102.191 36.5505C100.971 36.5505 99.9824 35.6099 99.9824 34.4496C99.9824 33.2893 100.971 32.3486 102.191 32.3486Z" fill="#1E1D24"/>
<path fill-rule="evenodd" clip-rule="evenodd" d="M35.0994 66.9404C35.9881 66.9404 36.7086 67.6258 36.7086 68.4713C36.7086 69.3168 35.9881 70.0021 35.0994 70.0021C34.2107 70.0021 33.4902 69.3168 33.4902 68.4713C33.4902 67.6258 34.2107 66.9404 35.0994 66.9404Z" fill="#1E1D24"/>
<path fill-rule="evenodd" clip-rule="evenodd" d="M136.881 96.2578C137.769 96.2578 138.49 96.9432 138.49 97.7887C138.49 98.6341 137.769 99.3195 136.881 99.3195C135.992 99.3195 135.271 98.6341 135.271 97.7887C135.271 96.9432 135.992 96.2578 136.881 96.2578Z" fill="#1E1D24"/>
<path fill-rule="evenodd" clip-rule="evenodd" d="M113.144 60.5151C114.033 60.5151 114.754 61.2005 114.754 62.046C114.754 62.8915 114.033 63.5768 113.144 63.5768C112.256 63.5768 111.535 62.8915 111.535 62.046C111.535 61.2005 112.256 60.5151 113.144 60.5151Z" fill="#1E1D24"/>
<path fill-rule="evenodd" clip-rule="evenodd" d="M68.8924 43.6475C69.7811 43.6475 70.5016 44.3328 70.5016 45.1783C70.5016 46.0238 69.7811 46.7092 68.8924 46.7092C68.0037 46.7092 67.2832 46.0238 67.2832 45.1783C67.2832 44.3328 68.0037 43.6475 68.8924 43.6475Z" fill="#1E1D24"/>
<path fill-rule="evenodd" clip-rule="evenodd" d="M89.8123 111.117C90.701 111.117 91.4215 111.802 91.4215 112.648C91.4215 113.493 90.701 114.178 89.8123 114.178C88.9236 114.178 88.2031 113.493 88.2031 112.648C88.2031 111.802 88.9236 111.117 89.8123 111.117Z" fill="#1E1D24"/>
<path fill-rule="evenodd" clip-rule="evenodd" d="M117.234 108.675C117.916 108.675 118.468 109.2 118.468 109.849C118.468 110.497 117.916 111.023 117.234 111.023C116.553 111.023 116 110.497 116 109.849C116 109.2 116.553 108.675 117.234 108.675Z" fill="#1E1D24"/>
<path fill-rule="evenodd" clip-rule="evenodd" d="M149.349 49.002C150.031 49.002 150.584 49.5276 150.584 50.176C150.584 50.8244 150.031 51.3501 149.349 51.3501C148.668 51.3501 148.115 50.8244 148.115 50.176C148.115 49.5276 148.668 49.002 149.349 49.002Z" fill="#1E1D24"/>
<path fill-rule="evenodd" clip-rule="evenodd" d="M76.5347 6.44238C77.8979 6.44238 79.003 7.49367 79.003 8.79051C79.003 10.0873 77.8979 11.1386 76.5347 11.1386C75.1715 11.1386 74.0664 10.0873 74.0664 8.79051C74.0664 7.49367 75.1715 6.44238 76.5347 6.44238Z" fill="#1E1D24"/>
<path fill-rule="evenodd" clip-rule="evenodd" d="M85.7908 12.6108C86.4724 12.6108 87.0249 13.1365 87.0249 13.7849C87.0249 14.4333 86.4724 14.959 85.7908 14.959C85.1092 14.959 84.5566 14.4333 84.5566 13.7849C84.5566 13.1365 85.1092 12.6108 85.7908 12.6108Z" fill="#1E1D24"/>
<path fill-rule="evenodd" clip-rule="evenodd" d="M128.986 0.274414C129.668 0.274414 130.22 0.800059 130.22 1.44848C130.22 2.0969 129.668 2.62254 128.986 2.62254C128.304 2.62254 127.752 2.0969 127.752 1.44848C127.752 0.800059 128.304 0.274414 128.986 0.274414Z" fill="#1E1D24"/>
<path fill-rule="evenodd" clip-rule="evenodd" d="M157.371 80.459C158.052 80.459 158.605 80.9846 158.605 81.633C158.605 82.2815 158.052 82.8071 157.371 82.8071C156.689 82.8071 156.137 82.2815 156.137 81.633C156.137 80.9846 156.689 80.459 157.371 80.459Z" fill="#1E1D24"/>
<path fill-rule="evenodd" clip-rule="evenodd" d="M74.0662 126.103C74.7478 126.103 75.3003 126.629 75.3003 127.277C75.3003 127.926 74.7478 128.451 74.0662 128.451C73.3846 128.451 72.832 127.926 72.832 127.277C72.832 126.629 73.3846 126.103 74.0662 126.103Z" fill="#1E1D24"/>
<path opacity="0.1" fill-rule="evenodd" clip-rule="evenodd" d="M93.812 141.523C95.1752 141.523 96.2803 142.574 96.2803 143.871C96.2803 145.168 95.1752 146.219 93.812 146.219C92.4488 146.219 91.3438 145.168 91.3438 143.871C91.3438 142.574 92.4488 141.523 93.812 141.523Z" fill="#1E1D24"/>
<path fill-rule="evenodd" clip-rule="evenodd" d="M30.8709 3.97559C31.5524 3.97559 32.105 4.50123 32.105 5.14965C32.105 5.79807 31.5524 6.32371 30.8709 6.32371C30.1893 6.32371 29.6367 5.79807 29.6367 5.14965C29.6367 4.50123 30.1893 3.97559 30.8709 3.97559Z" fill="#1E1D24"/>
<path opacity="0.1" fill-rule="evenodd" clip-rule="evenodd" d="M5.92916 34.8105C7.14885 34.8105 8.13761 35.7512 8.13761 36.9115C8.13761 38.0718 7.14885 39.0125 5.92916 39.0125C4.70946 39.0125 3.7207 38.0718 3.7207 36.9115C3.7207 35.7512 4.70946 34.8105 5.92916 34.8105Z" fill="#1E1D24"/>
<path opacity="0.1" fill-rule="evenodd" clip-rule="evenodd" d="M1.74931 94.6741C0.603373 94.2565 -0.00449357 93.0347 0.391601 91.9452C0.787695 90.8556 2.03776 90.3109 3.1837 90.7284C4.32964 91.146 4.93751 92.3678 4.54141 93.4574C4.14532 94.5469 2.89526 95.0917 1.74931 94.6741Z" fill="#1E1D24"/>
<path opacity="0.1" fill-rule="evenodd" clip-rule="evenodd" d="M162.103 92.2849C160.957 91.8673 160.349 90.6455 160.745 89.556C161.141 88.4664 162.391 87.9217 163.537 88.3393C164.683 88.7569 165.291 89.9786 164.895 91.0682C164.499 92.1578 163.249 92.7025 162.103 92.2849Z" fill="#1E1D24"/>
<path opacity="0.1" fill-rule="evenodd" clip-rule="evenodd" d="M34.6634 54.7556C33.5174 54.338 32.9096 53.1163 33.3057 52.0267C33.7018 50.9371 34.9518 50.3924 36.0978 50.81C37.2437 51.2276 37.8516 52.4493 37.4555 53.5389C37.0594 54.6285 35.8093 55.1732 34.6634 54.7556Z" fill="#1E1D24"/>
<path fill-rule="evenodd" clip-rule="evenodd" d="M52.886 99.9089C51.7401 99.4913 51.1322 98.2696 51.5283 97.18C51.9244 96.0905 53.1745 95.5457 54.3204 95.9633C55.4664 96.3809 56.0742 97.6027 55.6781 98.6922C55.282 99.7818 54.032 100.327 52.886 99.9089Z" fill="#1E1D24"/>
<path fill-rule="evenodd" clip-rule="evenodd" d="M58.5573 25.2445C57.9169 25.0111 57.5772 24.3284 57.7986 23.7195C58.0199 23.1106 58.7185 22.8062 59.3589 23.0396C59.9992 23.2729 60.3389 23.9557 60.1176 24.5645C59.8962 25.1734 59.1977 25.4778 58.5573 25.2445Z" fill="#1E1D24"/>
<path fill-rule="evenodd" clip-rule="evenodd" d="M8.60221 72.9784C7.96184 72.745 7.62215 72.0622 7.84349 71.4534C8.06484 70.8445 8.7634 70.5401 9.40378 70.7734C10.0442 71.0068 10.3838 71.6896 10.1625 72.2984C9.94116 72.9073 9.24259 73.2117 8.60221 72.9784Z" fill="#1E1D24"/>
<path fill-rule="evenodd" clip-rule="evenodd" d="M62.4661 137.867C61.1854 137.401 60.506 136.035 60.9487 134.817C61.3914 133.6 62.7885 132.991 64.0693 133.458C65.35 133.924 66.0294 135.29 65.5867 136.507C65.144 137.725 63.7469 138.334 62.4661 137.867Z" fill="#1E1D24"/>
<path fill-rule="evenodd" clip-rule="evenodd" d="M55.8776 128.907C55.2372 128.673 54.8975 127.99 55.1189 127.382C55.3402 126.773 56.0388 126.468 56.6792 126.702C57.3195 126.935 57.6592 127.618 57.4379 128.227C57.2165 128.836 56.518 129.14 55.8776 128.907Z" fill="#1E1D24"/>
<path fill-rule="evenodd" clip-rule="evenodd" d="M11.0885 125.711C10.4482 125.477 10.1085 124.795 10.3298 124.186C10.5512 123.577 11.2497 123.273 11.8901 123.506C12.5305 123.739 12.8702 124.422 12.6488 125.031C12.4275 125.64 11.7289 125.944 11.0885 125.711Z" fill="#1E1D24"/>
<path fill-rule="evenodd" clip-rule="evenodd" d="M11.8112 40.6893C11.1708 40.4559 10.8311 39.7732 11.0525 39.1643C11.2738 38.5554 11.9724 38.251 12.6127 38.4844C13.2531 38.7177 13.5928 39.4005 13.3715 40.0094C13.1501 40.6182 12.4516 40.9226 11.8112 40.6893Z" fill="#1E1D24"/>
<path fill-rule="evenodd" clip-rule="evenodd" d="M105.653 26.3284C105.013 26.0951 104.673 25.4123 104.894 24.8035C105.116 24.1946 105.814 23.8902 106.455 24.1235C107.095 24.3569 107.435 25.0397 107.213 25.6485C106.992 26.2574 106.293 26.5618 105.653 26.3284Z" fill="#1E1D24"/>
<path opacity="0.1" fill-rule="evenodd" clip-rule="evenodd" d="M92.3704 5.08854C91.0897 4.62182 90.4103 3.25631 90.853 2.03857C91.2957 0.820833 92.6928 0.212009 93.9736 0.678723C95.2543 1.14544 95.9337 2.51095 95.491 3.72869C95.0483 4.94643 93.6512 5.55525 92.3704 5.08854Z" fill="#1E1D24"/>
<path fill-rule="evenodd" clip-rule="evenodd" d="M104.518 155.81C103.878 155.577 103.538 154.894 103.76 154.285C103.981 153.676 104.679 153.372 105.32 153.605C105.96 153.838 106.3 154.521 106.079 155.13C105.857 155.739 105.159 156.043 104.518 155.81Z" fill="#1E1D24"/>
<path opacity="0.1" fill-rule="evenodd" clip-rule="evenodd" d="M138.48 135.385C137.334 134.968 136.726 133.746 137.122 132.657C137.518 131.567 138.768 131.022 139.914 131.44C141.06 131.857 141.668 133.079 141.272 134.169C140.876 135.258 139.626 135.803 138.48 135.385Z" fill="#1E1D24"/>
<path d="M82.3712 100.615C94.6682 100.615 104.637 90.6628 104.637 78.3864C104.637 66.1101 94.6682 56.1582 82.3712 56.1582C70.0742 56.1582 60.1055 66.1101 60.1055 78.3864C60.1055 90.6628 70.0742 100.615 82.3712 100.615Z" stroke="#1E1D24" stroke-width="1.26733"/>
<mask id="mask0_6556_81241" style="mask-type:alpha" maskUnits="userSpaceOnUse" x="71" y="70" width="23" height="17">
<path d="M78.6996 83.4806L73.597 78.3867L71.8594 80.1091L78.6996 86.9375L93.3834 72.279L91.658 70.5566L78.6996 83.4806Z" fill="white"/>
</mask>
<g mask="url(#mask0_6556_81241)">
<path d="M78.6996 83.4806L73.597 78.3867L71.8594 80.1091L78.6996 86.9375L93.3834 72.279L91.658 70.5566L78.6996 83.4806Z" fill="#1E1D24"/>
</g>
</svg>
