<svg width="40" height="40" viewBox="0 0 40 40" fill="none" xmlns="http://www.w3.org/2000/svg">
<circle cx="20" cy="20" r="20" fill="#FEF3E8"/>
<path d="M24.3334 28.333C26.5425 28.333 28.3334 26.5421 28.3334 24.333C28.3334 22.1239 26.5425 20.333 24.3334 20.333C22.1242 20.333 20.3334 22.1239 20.3334 24.333C20.3334 26.5421 22.1242 28.333 24.3334 28.333Z" stroke="url(#paint0_linear_3539_97702)" stroke-width="1.5" stroke-miterlimit="10" stroke-linecap="round" stroke-linejoin="round"/>
<path d="M25.825 24.3828H22.8417" stroke="url(#paint1_linear_3539_97702)" stroke-width="1.5" stroke-miterlimit="10" stroke-linecap="round" stroke-linejoin="round"/>
<path d="M24.3334 22.9248V25.9164" stroke="url(#paint2_linear_3539_97702)" stroke-width="1.5" stroke-miterlimit="10" stroke-linecap="round" stroke-linejoin="round"/>
<path d="M28.3333 17.2414C28.3333 18.883 27.9083 20.333 27.2416 21.5913C26.5083 20.8163 25.475 20.333 24.3333 20.333C22.125 20.333 20.3333 22.1247 20.3333 24.333C20.3333 25.358 20.725 26.2914 21.3583 26.9997C21.05 27.1414 20.7666 27.258 20.5166 27.3414C20.2333 27.4414 19.7666 27.4414 19.4833 27.3414C17.0666 26.5164 11.6666 23.0747 11.6666 17.2414C11.6666 14.6664 13.7416 12.583 16.3 12.583C17.8083 12.583 19.1583 13.3164 20 14.4414C20.8416 13.3164 22.1916 12.583 23.7 12.583C26.2583 12.583 28.3333 14.6664 28.3333 17.2414Z" stroke="url(#paint3_linear_3539_97702)" stroke-width="1.5" stroke-linecap="round" stroke-linejoin="round"/>
<defs>
<linearGradient id="paint0_linear_3539_97702" x1="20.3334" y1="20.333" x2="28.3334" y2="28.333" gradientUnits="userSpaceOnUse">
<stop stop-color="#F18B1B"/>
<stop offset="1" stop-color="#E52053"/>
</linearGradient>
<linearGradient id="paint1_linear_3539_97702" x1="22.8417" y1="24.3828" x2="23.4443" y2="26.1808" gradientUnits="userSpaceOnUse">
<stop stop-color="#F18B1B"/>
<stop offset="1" stop-color="#E52053"/>
</linearGradient>
<linearGradient id="paint2_linear_3539_97702" x1="24.3334" y1="22.9248" x2="26.1324" y2="23.5261" gradientUnits="userSpaceOnUse">
<stop stop-color="#F18B1B"/>
<stop offset="1" stop-color="#E52053"/>
</linearGradient>
<linearGradient id="paint3_linear_3539_97702" x1="11.6666" y1="12.583" x2="26.3998" y2="29.1371" gradientUnits="userSpaceOnUse">
<stop stop-color="#F18B1B"/>
<stop offset="1" stop-color="#E52053"/>
</linearGradient>
</defs>
</svg>
