<svg width="16" height="19" viewBox="0 0 16 19" fill="none" xmlns="http://www.w3.org/2000/svg">
<path d="M12.6002 3.32C12.6002 3.32 13.1102 3.82 12.6002 3.32C11.9166 2.53962 11.5399 1.53743 11.5402 0.5H8.45016V12.9C8.42632 13.571 8.14303 14.2066 7.65992 14.6729C7.17682 15.1393 6.5316 15.3999 5.86016 15.4C4.44016 15.4 3.26016 14.24 3.26016 12.8C3.26016 11.08 4.92016 9.79 6.63016 10.32V7.16C3.18016 6.7 0.160156 9.38 0.160156 12.8C0.160156 16.13 2.92016 18.5 5.85016 18.5C8.99016 18.5 11.5402 15.95 11.5402 12.8V6.51C12.7932 7.40985 14.2975 7.89265 15.8402 7.89V4.8C15.8402 4.8 13.9602 4.89 12.6002 3.32Z" fill=""/>
</svg>
