<svg width="47" height="48" viewBox="0 0 47 48" fill="none" xmlns="http://www.w3.org/2000/svg">
<g clip-path="url(#clip0_7691_340)">
<path d="M23.5002 25.1479L31.8094 33.4552L29.0383 36.2262L25.4585 32.6464V43.5837H21.5418V32.6424L17.962 36.2262L15.191 33.4552L23.5002 25.1479ZM23.5002 4.41699C26.8626 4.41715 30.1077 5.65292 32.6185 7.88935C35.1294 10.1258 36.7308 13.2069 37.1184 16.5469C39.5551 17.2114 41.6808 18.7111 43.124 20.7838C44.5671 22.8566 45.236 25.3706 45.0137 27.8864C44.7913 30.4023 43.6919 32.76 41.9076 34.5475C40.1233 36.3351 37.7676 37.4387 35.2521 37.6656V33.7215C36.1533 33.5928 37.0198 33.2859 37.8011 32.8186C38.5823 32.3514 39.2627 31.7332 39.8024 31.0002C40.3422 30.2672 40.7305 29.434 40.9447 28.5492C41.159 27.6645 41.1948 26.7459 41.0502 25.8472C40.9056 24.9484 40.5833 24.0875 40.1024 23.3146C39.6214 22.5417 38.9912 21.8724 38.2488 21.3457C37.5063 20.8191 36.6663 20.4455 35.7779 20.247C34.8895 20.0485 33.9705 20.0289 33.0745 20.1894C33.3811 18.7616 33.3646 17.2832 33.0259 15.8626C32.6873 14.442 32.0351 13.1151 31.1173 11.9792C30.1994 10.8432 29.0391 9.92697 27.7213 9.29754C26.4035 8.66811 24.9616 8.34143 23.5011 8.34143C22.0407 8.34143 20.5988 8.66811 19.281 9.29754C17.9632 9.92697 16.8028 10.8432 15.885 11.9792C14.9671 13.1151 14.315 14.442 13.9764 15.8626C13.6377 17.2832 13.6211 18.7616 13.9278 20.1894C12.1412 19.8539 10.2944 20.2419 8.79375 21.268C7.29313 22.2941 6.2616 23.8743 5.92608 25.661C5.59056 27.4477 5.97853 29.2944 7.00465 30.7951C8.03077 32.2957 9.61099 33.3272 11.3977 33.6627L11.7502 33.7215V37.6656C9.23458 37.439 6.87862 36.3357 5.09405 34.5483C3.30947 32.7609 2.2098 30.4032 1.98723 27.8873C1.76466 25.3713 2.43335 22.8572 3.87642 20.7843C5.3195 18.7114 7.44517 17.2115 9.88191 16.5469C10.2691 13.2067 11.8704 10.1254 14.3813 7.88885C16.8923 5.65235 20.1376 4.41672 23.5002 4.41699V4.41699Z" fill="#1E1D24"/>
</g>
<defs>
<clipPath id="clip0_7691_340">
<rect width="47" height="47" fill="white" transform="translate(0 0.5)"/>
</clipPath>
</defs>
</svg>
