<svg width="16" height="17" viewBox="0 0 16 17" fill="none" xmlns="http://www.w3.org/2000/svg">
<path d="M6.10671 7.74659C6.04004 7.73992 5.96004 7.73992 5.88671 7.74659C4.30004 7.69325 3.04004 6.39325 3.04004 4.79325C3.04004 3.15992 4.36004 1.83325 6.00004 1.83325C7.63337 1.83325 8.96004 3.15992 8.96004 4.79325C8.95337 6.39325 7.69337 7.69325 6.10671 7.74659Z" stroke="white" stroke-linecap="round" stroke-linejoin="round"/>
<path d="M10.9402 3.16675C12.2335 3.16675 13.2735 4.21341 13.2735 5.50008C13.2735 6.76008 12.2735 7.78675 11.0268 7.83341C10.9735 7.82675 10.9135 7.82675 10.8535 7.83341" stroke="white" stroke-linecap="round" stroke-linejoin="round"/>
<path d="M2.77348 10.2067C1.16014 11.2867 1.16014 13.0467 2.77348 14.1201C4.60681 15.3467 7.61348 15.3467 9.44681 14.1201C11.0601 13.0401 11.0601 11.2801 9.44681 10.2067C7.62014 8.98675 4.61348 8.98675 2.77348 10.2067Z" stroke="white" stroke-linecap="round" stroke-linejoin="round"/>
<path d="M12.2266 13.8333C12.7066 13.7333 13.1599 13.5399 13.5332 13.2533C14.5732 12.4733 14.5732 11.1866 13.5332 10.4066C13.1666 10.1266 12.7199 9.93992 12.2466 9.83325" stroke="white" stroke-linecap="round" stroke-linejoin="round"/>
</svg>
