<svg width="18" height="18" viewBox="0 0 18 18" fill="none" xmlns="http://www.w3.org/2000/svg">
<path d="M5.02344 14.4755L2.96094 14.0255C2.77344 13.988 2.62344 13.891 2.51094 13.7345C2.39844 13.5785 2.35469 13.4068 2.37969 13.2193L2.58594 11.1005L1.17969 9.48802C1.05469 9.35052 0.992188 9.18802 0.992188 9.00052C0.992188 8.81302 1.05469 8.65052 1.17969 8.51302L2.58594 6.90052L2.37969 4.78177C2.35469 4.59427 2.39844 4.42252 2.51094 4.26652C2.62344 4.11002 2.77344 4.01302 2.96094 3.97552L5.02344 3.52552L6.11094 1.68802C6.21094 1.52552 6.34844 1.41927 6.52344 1.36927C6.69844 1.31927 6.87344 1.32552 7.04844 1.38802L8.99844 2.21302L10.9484 1.38802C11.1234 1.32552 11.2984 1.31927 11.4734 1.36927C11.6484 1.41927 11.7859 1.52552 11.8859 1.68802L12.9734 3.52552L15.0359 3.97552C15.2234 4.01302 15.3734 4.11002 15.4859 4.26652C15.5984 4.42252 15.6422 4.59427 15.6172 4.78177L15.4109 6.90052L16.8172 8.51302C16.9422 8.65052 17.0047 8.81302 17.0047 9.00052C17.0047 9.18802 16.9422 9.35052 16.8172 9.48802L15.4109 11.1005L15.6172 13.2193C15.6422 13.4068 15.5984 13.5785 15.4859 13.7345C15.3734 13.891 15.2234 13.988 15.0359 14.0255L12.9734 14.4755L11.8859 16.313C11.7859 16.4755 11.6484 16.5818 11.4734 16.6318C11.2984 16.6818 11.1234 16.6755 10.9484 16.613L8.99844 15.788L7.04844 16.613C6.87344 16.6755 6.69844 16.6818 6.52344 16.6318C6.34844 16.5818 6.21094 16.4755 6.11094 16.313L5.02344 14.4755ZM7.68594 11.138C7.82344 11.2755 7.99844 11.3443 8.21094 11.3443C8.42344 11.3443 8.59844 11.2755 8.73594 11.138L11.9234 7.95052C12.0734 7.80052 12.1484 7.62227 12.1484 7.41577C12.1484 7.20977 12.0734 7.03177 11.9234 6.88177C11.7734 6.73177 11.5954 6.65677 11.3894 6.65677C11.1829 6.65677 11.0047 6.73177 10.8547 6.88177L8.21094 9.52552L7.12344 8.45677C6.97344 8.31927 6.79544 8.25352 6.58944 8.25952C6.38294 8.26602 6.21094 8.33802 6.07344 8.47552C5.93594 8.61302 5.86719 8.78802 5.86719 9.00052C5.86719 9.21302 5.93594 9.38802 6.07344 9.52552L7.68594 11.138Z" fill="#F18B1B"/>
</svg>
