<svg width="18" class="fill-current" height="16" viewBox="0 0 18 16" fill="none" xmlns="http://www.w3.org/2000/svg">
<path d="M15.667 3.83333V2.16667H2.33366V13.8333H15.667V12.1667H9.00033C8.77931 12.1667 8.56735 12.0789 8.41107 11.9226C8.25479 11.7663 8.16699 11.5543 8.16699 11.3333V4.66667C8.16699 4.44565 8.25479 4.23369 8.41107 4.07741C8.56735 3.92113 8.77931 3.83333 9.00033 3.83333H15.667ZM1.50033 0.5H16.5003C16.7213 0.5 16.9333 0.587797 17.0896 0.744078C17.2459 0.900358 17.3337 1.11232 17.3337 1.33333V14.6667C17.3337 14.8877 17.2459 15.0996 17.0896 15.2559C16.9333 15.4122 16.7213 15.5 16.5003 15.5H1.50033C1.27931 15.5 1.06735 15.4122 0.91107 15.2559C0.75479 15.0996 0.666992 14.8877 0.666992 14.6667V1.33333C0.666992 1.11232 0.75479 0.900358 0.91107 0.744078C1.06735 0.587797 1.27931 0.5 1.50033 0.5ZM9.83366 5.5V10.5H15.667V5.5H9.83366ZM11.5003 7.16667H14.0003V8.83333H11.5003V7.16667Z" fill=""/>
</svg>
