<svg width="25" height="24" viewBox="0 0 25 24" fill="none" xmlns="http://www.w3.org/2000/svg">
<path d="M13.125 11.1499H7.125" stroke="#7D7C80" stroke-width="1.5" stroke-linecap="round" stroke-linejoin="round"/>
<path d="M2.125 11.1501V6.53009C2.125 4.49009 3.775 2.84009 5.815 2.84009H11.435C13.475 2.84009 15.125 4.11009 15.125 6.15009" stroke="#7D7C80" stroke-width="1.5" stroke-linecap="round" stroke-linejoin="round"/>
<path d="M17.605 12.1999C17.105 12.6799 16.865 13.4199 17.065 14.1799C17.315 15.1099 18.235 15.6999 19.195 15.6999H20.125V17.1499C20.125 19.3599 18.335 21.1499 16.125 21.1499H6.125C3.915 21.1499 2.125 19.3599 2.125 17.1499V10.1499C2.125 7.9399 3.915 6.1499 6.125 6.1499H16.125C18.325 6.1499 20.125 7.9499 20.125 10.1499V11.5999H19.045C18.485 11.5999 17.975 11.8199 17.605 12.1999Z" stroke="#7D7C80" stroke-width="1.5" stroke-linecap="round" stroke-linejoin="round"/>
<path d="M22.1252 12.6201V14.6801C22.1252 15.2401 21.6652 15.7001 21.0952 15.7001H19.1652C18.0852 15.7001 17.0952 14.9101 17.0052 13.8301C16.9452 13.2001 17.1852 12.6101 17.6052 12.2001C17.9752 11.8201 18.4852 11.6001 19.0452 11.6001H21.0952C21.6652 11.6001 22.1252 12.0601 22.1252 12.6201Z" stroke="#7D7C80" stroke-width="1.5" stroke-linecap="round" stroke-linejoin="round"/>
</svg>
