<svg width="25" height="24" viewBox="0 0 25 24" fill="none" xmlns="http://www.w3.org/2000/svg">
<path d="M14.6183 3.19943L14.6186 3.19962L20.3785 7.22955C20.3785 7.22957 20.3786 7.2296 20.3786 7.22962C20.8478 7.55809 21.2921 8.09665 21.6195 8.72383C21.9469 9.35104 22.1352 10.0242 22.1352 10.5999V17.3799C22.1352 19.6538 20.2891 21.4999 18.0152 21.4999H7.23523C4.96278 21.4999 3.11523 19.6452 3.11523 17.3699V10.4699C3.11523 9.9355 3.28562 9.29642 3.58381 8.6908C3.88186 8.08545 4.2863 7.55682 4.71275 7.22419L4.71286 7.2241L9.72148 3.31518C9.7217 3.31501 9.72192 3.31484 9.72214 3.31467C11.059 2.27937 13.228 2.22535 14.6183 3.19943ZM12.6252 19.2499C13.3114 19.2499 13.8752 18.6861 13.8752 17.9999V14.9999C13.8752 14.3138 13.3114 13.7499 12.6252 13.7499C11.9391 13.7499 11.3752 14.3138 11.3752 14.9999V17.9999C11.3752 18.6861 11.9391 19.2499 12.6252 19.2499Z" fill="url(#paint0_linear_4738_7892)" stroke="url(#paint1_linear_4738_7892)"/>
<defs>
<linearGradient id="paint0_linear_4738_7892" x1="2.61523" y1="2.0022" x2="22.613" y2="22.0222" gradientUnits="userSpaceOnUse">
<stop stop-color="#F18B1B"/>
<stop offset="1" stop-color="#E52053"/>
</linearGradient>
<linearGradient id="paint1_linear_4738_7892" x1="2.61523" y1="2.0022" x2="22.613" y2="22.0222" gradientUnits="userSpaceOnUse">
<stop stop-color="#F18B1B"/>
<stop offset="1" stop-color="#E52053"/>
</linearGradient>
</defs>
</svg>
