<svg width="25" height="24" viewBox="0 0 25 24" fill="none" xmlns="http://www.w3.org/2000/svg">
<path d="M9.53506 10.87C9.43506 10.86 9.31506 10.86 9.20506 10.87C6.82506 10.79 4.93506 8.84 4.93506 6.44C4.93506 3.99 6.91506 2 9.37506 2C11.8251 2 13.8151 3.99 13.8151 6.44C13.8051 8.84 11.9151 10.79 9.53506 10.87Z" stroke="#7D7C80" stroke-width="1.5" stroke-linecap="round" stroke-linejoin="round"/>
<path d="M16.7848 4C18.7248 4 20.2848 5.57 20.2848 7.5C20.2848 9.39 18.7848 10.93 16.9148 11C16.8348 10.99 16.7448 10.99 16.6548 11" stroke="#7D7C80" stroke-width="1.5" stroke-linecap="round" stroke-linejoin="round"/>
<path d="M4.53521 14.56C2.11521 16.18 2.11521 18.82 4.53521 20.43C7.28521 22.27 11.7952 22.27 14.5452 20.43C16.9652 18.81 16.9652 16.17 14.5452 14.56C11.8052 12.73 7.29521 12.73 4.53521 14.56Z" stroke="#7D7C80" stroke-width="1.5" stroke-linecap="round" stroke-linejoin="round"/>
<path d="M18.7148 20C19.4348 19.85 20.1148 19.56 20.6748 19.13C22.2348 17.96 22.2348 16.03 20.6748 14.86C20.1248 14.44 19.4548 14.16 18.7448 14" stroke="#7D7C80" stroke-width="1.5" stroke-linecap="round" stroke-linejoin="round"/>
</svg>
