<svg width="24" height="24" viewBox="0 0 24 24" fill="none" xmlns="http://www.w3.org/2000/svg">
<g clip-path="url(#clip0_3515_1216)">
<path d="M15.7289 8.2081C15.2559 8.1711 14.7479 8.2841 13.9699 8.5811C14.0359 8.5561 13.2279 8.8711 13.0019 8.9511C12.4999 9.1261 12.0869 9.2221 11.6239 9.2221C11.1659 9.2221 10.7439 9.1301 10.2579 8.9671C10.1029 8.9141 9.94694 8.8571 9.75294 8.7811C9.67094 8.7491 9.37094 8.6291 9.30494 8.6041C8.65694 8.3501 8.29194 8.2541 7.98894 8.2621C6.83694 8.2771 5.74594 8.9421 5.11294 10.0441C3.82094 12.2881 4.53594 16.3431 6.42494 19.0751C7.43094 20.5191 7.98094 21.0351 8.20294 21.0281C8.42494 21.0181 8.58794 20.9711 8.98594 20.8031L9.15294 20.7321C10.1579 20.3031 10.8629 20.1141 11.9239 20.1141C12.9449 20.1141 13.6269 20.3001 14.5919 20.7161L14.7599 20.7881C15.1579 20.9581 15.3019 20.9961 15.5519 20.9901C15.9099 20.9851 16.3509 20.5731 17.3299 19.1361C17.5979 18.7451 17.8349 18.3331 18.0399 17.9161C17.9052 17.8051 17.7744 17.6894 17.6479 17.5691C16.3589 16.3411 15.5619 14.6851 15.5399 12.6391C15.5184 11.1253 16.016 9.64971 16.9499 8.4581C16.558 8.31339 16.1463 8.22909 15.7289 8.2081ZM15.8839 6.2141C16.5919 6.2621 18.6199 6.4781 19.9399 8.4101C19.8319 8.4701 17.5159 9.8141 17.5399 12.6221C17.5759 15.9821 20.4799 17.0981 20.5159 17.1101C20.4919 17.1941 20.0479 18.7061 18.9799 20.2661C18.0559 21.6221 17.0959 22.9661 15.5839 22.9901C14.0959 23.0261 13.6159 22.1141 11.9239 22.1141C10.2199 22.1141 9.69194 22.9661 8.28794 23.0261C6.82394 23.0741 5.71994 21.5621 4.78394 20.2181C2.87594 17.4581 1.42394 12.4421 3.37994 9.0461C4.35194 7.3541 6.07994 6.2861 7.96394 6.2621C9.39194 6.2261 10.7479 7.2221 11.6239 7.2221C12.4879 7.2221 14.0359 6.0701 15.8839 6.2141ZM14.7439 4.3901C13.9639 5.3261 12.6919 6.0581 11.4559 5.9621C11.2879 4.6901 11.9119 3.3581 12.6319 2.5301C13.4359 1.5941 14.7799 0.898098 15.8959 0.850098C16.0399 2.1461 15.5239 3.4541 14.7439 4.3901Z" fill="#09121F"/>
</g>
<defs>
<clipPath id="clip0_3515_1216">
<rect width="24" height="24" fill="white"/>
</clipPath>
</defs>
</svg>
