<svg xmlns="http://www.w3.org/2000/svg" width="24" height="24" viewBox="0 0 20 20" fill="none">
  <path d="M10.0001 1.6665C14.6251 1.6665 18.3334 5.4165 18.3334 9.99984C18.3334 14.5832 14.5834 18.3332 10.0001 18.3332C5.41675 18.3332 1.66675 14.5832 1.66675 9.99984C1.66675 5.4165 5.41675 1.6665 10.0001 1.6665ZM10.0001 3.33317C6.33758 3.33317 3.33341 6.33734 3.33341 9.99984C3.33341 13.6623 6.33758 16.6665 10.0001 16.6665C13.6626 16.6665 16.6667 13.6623 16.6667 9.99984C16.6667 6.3215 13.6892 3.33317 10.0001 3.33317ZM13.1251 13.8748C11.1667 12.6665 8.70842 12.4165 5.79175 13.0832C5.50008 13.1665 5.25008 12.9582 5.16675 12.7082C5.08341 12.4165 5.29175 12.1665 5.54175 12.0832C8.70842 11.3748 11.4584 11.6665 13.6251 12.9998C13.9167 13.1248 13.9584 13.4582 13.8334 13.7082C13.6667 13.9582 13.3751 14.0415 13.1251 13.8748ZM13.9584 11.6248C11.7084 10.2498 8.29175 9.83317 5.66675 10.6665C5.33342 10.7498 4.95841 10.5832 4.87508 10.2498C4.79175 9.9165 4.95841 9.5415 5.29175 9.45817C8.33342 8.5415 12.0834 8.99984 14.6667 10.5832C14.9167 10.7082 15.0417 11.1248 14.8334 11.4165C14.6251 11.7082 14.2501 11.8332 13.9584 11.6248ZM5.25008 8.12484C4.83342 8.24984 4.41675 7.99984 4.29175 7.62484C4.16675 7.20817 4.41675 6.7915 4.79175 6.6665C7.75008 5.7915 12.6251 5.95817 15.7084 7.7915C16.0834 7.99984 16.2084 8.49984 16.0001 8.87484C15.7917 9.1665 15.2917 9.2915 14.9167 9.08317C12.2501 7.49984 7.79175 7.33317 5.25008 8.12484Z" fill="#1DB953"/>
</svg>